<mxfile host="app.diagrams.net" modified="2024-04-24T13:06:15.700Z" agent="Mozilla/5.0 (Macintosh; Intel Mac OS X 10_15_7) AppleWebKit/537.36 (KHTML, like Gecko) Chrome/123.0.0.0 Safari/537.36" etag="B3-ozxz6uiMGgRAWdr8h" version="24.2.8" type="github">
  <diagram name="PÃ¡gina-1" id="7MSN0dcOETf5na8nw2sd">
    <mxGraphModel dx="2455" dy="1530" grid="1" gridSize="10" guides="1" tooltips="1" connect="1" arrows="1" fold="1" page="1" pageScale="1" pageWidth="827" pageHeight="1169" math="0" shadow="0">
      <root>
        <mxCell id="0" />
        <mxCell id="1" parent="0" />
        <mxCell id="TASuhm_qrvJY3Lz54P2R-331" value="" style="whiteSpace=wrap;html=1;aspect=fixed;" parent="1" vertex="1">
          <mxGeometry x="-865" y="-530" width="560" height="560" as="geometry" />
        </mxCell>
        <mxCell id="TASuhm_qrvJY3Lz54P2R-3" style="edgeStyle=orthogonalEdgeStyle;rounded=0;orthogonalLoop=1;jettySize=auto;html=1;entryX=0.5;entryY=0;entryDx=0;entryDy=0;" parent="1" source="TASuhm_qrvJY3Lz54P2R-1" target="TASuhm_qrvJY3Lz54P2R-2" edge="1">
          <mxGeometry relative="1" as="geometry" />
        </mxCell>
        <mxCell id="TASuhm_qrvJY3Lz54P2R-1" value="Login (G&lt;span style=&quot;background-color: initial;&quot;&gt;oogle/Apple)&lt;/span&gt;" style="text;html=1;align=center;verticalAlign=middle;whiteSpace=wrap;rounded=0;" parent="1" vertex="1">
          <mxGeometry x="70" y="340" width="60" height="30" as="geometry" />
        </mxCell>
        <mxCell id="TASuhm_qrvJY3Lz54P2R-103" style="edgeStyle=orthogonalEdgeStyle;rounded=0;orthogonalLoop=1;jettySize=auto;html=1;entryX=0;entryY=0.5;entryDx=0;entryDy=0;" parent="1" source="TASuhm_qrvJY3Lz54P2R-2" target="TASuhm_qrvJY3Lz54P2R-11" edge="1">
          <mxGeometry relative="1" as="geometry" />
        </mxCell>
        <mxCell id="TASuhm_qrvJY3Lz54P2R-2" value="Supabase Auth" style="text;html=1;align=center;verticalAlign=middle;whiteSpace=wrap;rounded=0;" parent="1" vertex="1">
          <mxGeometry x="70" y="440" width="60" height="30" as="geometry" />
        </mxCell>
        <mxCell id="TASuhm_qrvJY3Lz54P2R-8" style="edgeStyle=orthogonalEdgeStyle;rounded=0;orthogonalLoop=1;jettySize=auto;html=1;" parent="1" source="TASuhm_qrvJY3Lz54P2R-4" edge="1">
          <mxGeometry relative="1" as="geometry">
            <mxPoint x="190" y="120" as="targetPoint" />
          </mxGeometry>
        </mxCell>
        <mxCell id="TASuhm_qrvJY3Lz54P2R-4" value="App start" style="text;html=1;align=center;verticalAlign=middle;whiteSpace=wrap;rounded=0;" parent="1" vertex="1">
          <mxGeometry x="160" y="40" width="60" height="30" as="geometry" />
        </mxCell>
        <mxCell id="TASuhm_qrvJY3Lz54P2R-12" style="edgeStyle=orthogonalEdgeStyle;rounded=0;orthogonalLoop=1;jettySize=auto;html=1;entryX=1;entryY=0.5;entryDx=0;entryDy=0;" parent="1" source="TASuhm_qrvJY3Lz54P2R-7" target="TASuhm_qrvJY3Lz54P2R-11" edge="1">
          <mxGeometry relative="1" as="geometry">
            <Array as="points">
              <mxPoint x="270" y="155" />
              <mxPoint x="270" y="455" />
            </Array>
          </mxGeometry>
        </mxCell>
        <mxCell id="TASuhm_qrvJY3Lz54P2R-13" value="Yes" style="edgeLabel;html=1;align=center;verticalAlign=middle;resizable=0;points=[];" parent="TASuhm_qrvJY3Lz54P2R-12" vertex="1" connectable="0">
          <mxGeometry x="0.129" y="1" relative="1" as="geometry">
            <mxPoint y="-125" as="offset" />
          </mxGeometry>
        </mxCell>
        <mxCell id="TASuhm_qrvJY3Lz54P2R-7" value="Has stored supabase auth" style="text;html=1;align=center;verticalAlign=middle;whiteSpace=wrap;rounded=0;" parent="1" vertex="1">
          <mxGeometry x="160" y="140" width="60" height="30" as="geometry" />
        </mxCell>
        <mxCell id="TASuhm_qrvJY3Lz54P2R-16" style="edgeStyle=orthogonalEdgeStyle;rounded=0;orthogonalLoop=1;jettySize=auto;html=1;" parent="1" source="TASuhm_qrvJY3Lz54P2R-11" edge="1">
          <mxGeometry relative="1" as="geometry">
            <mxPoint x="320" y="600" as="targetPoint" />
            <Array as="points">
              <mxPoint x="190" y="500" />
              <mxPoint x="320" y="500" />
            </Array>
          </mxGeometry>
        </mxCell>
        <mxCell id="TASuhm_qrvJY3Lz54P2R-17" value="Yes" style="edgeLabel;html=1;align=center;verticalAlign=middle;resizable=0;points=[];" parent="TASuhm_qrvJY3Lz54P2R-16" vertex="1" connectable="0">
          <mxGeometry x="-0.0706" y="-2" relative="1" as="geometry">
            <mxPoint as="offset" />
          </mxGeometry>
        </mxCell>
        <mxCell id="TASuhm_qrvJY3Lz54P2R-110" style="edgeStyle=orthogonalEdgeStyle;rounded=0;orthogonalLoop=1;jettySize=auto;html=1;entryX=0.5;entryY=0;entryDx=0;entryDy=0;" parent="1" source="TASuhm_qrvJY3Lz54P2R-11" target="TASuhm_qrvJY3Lz54P2R-109" edge="1">
          <mxGeometry relative="1" as="geometry">
            <Array as="points">
              <mxPoint x="190" y="500" />
              <mxPoint x="-50" y="500" />
            </Array>
          </mxGeometry>
        </mxCell>
        <mxCell id="TASuhm_qrvJY3Lz54P2R-111" value="No" style="edgeLabel;html=1;align=center;verticalAlign=middle;resizable=0;points=[];" parent="TASuhm_qrvJY3Lz54P2R-110" vertex="1" connectable="0">
          <mxGeometry x="-0.1744" relative="1" as="geometry">
            <mxPoint as="offset" />
          </mxGeometry>
        </mxCell>
        <mxCell id="TASuhm_qrvJY3Lz54P2R-11" value="Is onboarding finished (local check)" style="text;html=1;align=center;verticalAlign=middle;whiteSpace=wrap;rounded=0;" parent="1" vertex="1">
          <mxGeometry x="160" y="440" width="60" height="30" as="geometry" />
        </mxCell>
        <mxCell id="TASuhm_qrvJY3Lz54P2R-33" style="edgeStyle=orthogonalEdgeStyle;rounded=0;orthogonalLoop=1;jettySize=auto;html=1;" parent="1" source="TASuhm_qrvJY3Lz54P2R-15" target="TASuhm_qrvJY3Lz54P2R-32" edge="1">
          <mxGeometry relative="1" as="geometry" />
        </mxCell>
        <mxCell id="TASuhm_qrvJY3Lz54P2R-15" value="Navigate to HomePage" style="text;html=1;align=center;verticalAlign=middle;whiteSpace=wrap;rounded=0;" parent="1" vertex="1">
          <mxGeometry x="290" y="610" width="60" height="30" as="geometry" />
        </mxCell>
        <mxCell id="TASuhm_qrvJY3Lz54P2R-39" style="edgeStyle=orthogonalEdgeStyle;rounded=0;orthogonalLoop=1;jettySize=auto;html=1;entryX=0;entryY=0.5;entryDx=0;entryDy=0;" parent="1" source="TASuhm_qrvJY3Lz54P2R-18" target="TASuhm_qrvJY3Lz54P2R-38" edge="1">
          <mxGeometry relative="1" as="geometry" />
        </mxCell>
        <mxCell id="TASuhm_qrvJY3Lz54P2R-18" value="Get Flows&lt;br&gt;&lt;span style=&quot;font-family: Times; font-size: medium; text-align: start; white-space: pre;&quot;&gt;/flow/get-all&lt;/span&gt;" style="text;html=1;align=center;verticalAlign=middle;whiteSpace=wrap;rounded=0;" parent="1" vertex="1">
          <mxGeometry x="460" y="700" width="60" height="30" as="geometry" />
        </mxCell>
        <mxCell id="TASuhm_qrvJY3Lz54P2R-55" style="edgeStyle=orthogonalEdgeStyle;rounded=0;orthogonalLoop=1;jettySize=auto;html=1;exitX=1;exitY=0.5;exitDx=0;exitDy=0;entryX=0;entryY=0.5;entryDx=0;entryDy=0;" parent="1" source="TASuhm_qrvJY3Lz54P2R-20" target="TASuhm_qrvJY3Lz54P2R-54" edge="1">
          <mxGeometry relative="1" as="geometry" />
        </mxCell>
        <mxCell id="TASuhm_qrvJY3Lz54P2R-20" value="Create new session&lt;br&gt;&lt;span style=&quot;font-family: Times; font-size: medium; text-align: start; white-space: pre;&quot;&gt;/flow/session&lt;/span&gt;" style="text;html=1;align=center;verticalAlign=middle;whiteSpace=wrap;rounded=0;" parent="1" vertex="1">
          <mxGeometry x="450" y="825" width="80" height="40" as="geometry" />
        </mxCell>
        <mxCell id="TASuhm_qrvJY3Lz54P2R-89" style="edgeStyle=orthogonalEdgeStyle;rounded=0;orthogonalLoop=1;jettySize=auto;html=1;entryX=0;entryY=0.5;entryDx=0;entryDy=0;" parent="1" source="TASuhm_qrvJY3Lz54P2R-22" target="TASuhm_qrvJY3Lz54P2R-85" edge="1">
          <mxGeometry relative="1" as="geometry" />
        </mxCell>
        <mxCell id="TASuhm_qrvJY3Lz54P2R-22" value="Step Advance&lt;br&gt;&lt;span style=&quot;font-family: Times; font-size: medium; text-align: start; white-space: pre;&quot;&gt;/flow/{session_id}/step/advance&lt;/span&gt;" style="text;html=1;align=center;verticalAlign=middle;whiteSpace=wrap;rounded=0;" parent="1" vertex="1">
          <mxGeometry x="450" y="1265" width="80" height="40" as="geometry" />
        </mxCell>
        <mxCell id="TASuhm_qrvJY3Lz54P2R-63" style="edgeStyle=orthogonalEdgeStyle;rounded=0;orthogonalLoop=1;jettySize=auto;html=1;entryX=0;entryY=0.5;entryDx=0;entryDy=0;" parent="1" source="TASuhm_qrvJY3Lz54P2R-23" target="TASuhm_qrvJY3Lz54P2R-62" edge="1">
          <mxGeometry relative="1" as="geometry" />
        </mxCell>
        <mxCell id="TASuhm_qrvJY3Lz54P2R-23" value="Get interactions&lt;br&gt;&lt;span style=&quot;color: rgba(0, 0, 0, 0); font-family: monospace; font-size: 0px; text-align: start; text-wrap: nowrap;&quot;&gt;%3CmxGraphModel%3E%3Croot%3E%3CmxCell%20id%3D%220%22%2F%3E%3CmxCell%20id%3D%221%22%20parent%3D%220%22%2F%3E%3CmxCell%20id%3D%222%22%20value%3D%22Step%20Advance%26lt%3Bbr%26gt%3B%26lt%3Bspan%20style%3D%26quot%3Bfont-family%3A%20Times%3B%20font-size%3A%20medium%3B%20text-align%3A%20start%3B%20white-space%3A%20pre%3B%26quot%3B%26gt%3B%2Fflow%2Fsession%26lt%3B%2Fspan%26gt%3B%22%20style%3D%22text%3Bhtml%3D1%3Balign%3Dcenter%3BverticalAlign%3Dmiddle%3BwhiteSpace%3Dwrap%3Brounded%3D0%3B%22%20vertex%3D%221%22%20parent%3D%221%22%3E%3CmxGeometry%20x%3D%22280%22%20y%3D%22910%22%20width%3D%2280%22%20height%3D%2240%22%20as%3D%22geometry%22%2F%3E%3C%2FmxCell%3E%3C%2Froot%3E%3C%2FmxGraphModel%3E&lt;/span&gt;&lt;span style=&quot;font-family: Times; font-size: medium; text-align: start; white-space: pre;&quot;&gt;/flow/{session_id}/interactions&lt;/span&gt;" style="text;html=1;align=center;verticalAlign=middle;whiteSpace=wrap;rounded=0;" parent="1" vertex="1">
          <mxGeometry x="450" y="960" width="80" height="40" as="geometry" />
        </mxCell>
        <mxCell id="TASuhm_qrvJY3Lz54P2R-77" style="edgeStyle=orthogonalEdgeStyle;rounded=0;orthogonalLoop=1;jettySize=auto;html=1;entryX=0;entryY=0.5;entryDx=0;entryDy=0;" parent="1" source="TASuhm_qrvJY3Lz54P2R-26" target="TASuhm_qrvJY3Lz54P2R-65" edge="1">
          <mxGeometry relative="1" as="geometry" />
        </mxCell>
        <mxCell id="TASuhm_qrvJY3Lz54P2R-26" value="GetSteps&lt;br&gt;&lt;span style=&quot;font-family: Times; font-size: medium; text-align: start; white-space: pre;&quot;&gt;/flow/{session_id}/steps&lt;/span&gt;" style="text;html=1;align=center;verticalAlign=middle;whiteSpace=wrap;rounded=0;" parent="1" vertex="1">
          <mxGeometry x="460" y="1060" width="60" height="30" as="geometry" />
        </mxCell>
        <mxCell id="TASuhm_qrvJY3Lz54P2R-83" style="edgeStyle=orthogonalEdgeStyle;rounded=0;orthogonalLoop=1;jettySize=auto;html=1;entryX=0;entryY=0.5;entryDx=0;entryDy=0;" parent="1" source="TASuhm_qrvJY3Lz54P2R-29" target="TASuhm_qrvJY3Lz54P2R-82" edge="1">
          <mxGeometry relative="1" as="geometry" />
        </mxCell>
        <mxCell id="TASuhm_qrvJY3Lz54P2R-29" value="Get current session&lt;br&gt;&lt;span style=&quot;font-family: Times; font-size: medium; text-align: start; white-space: pre;&quot;&gt;/flow/{session_id}&lt;/span&gt;" style="text;html=1;align=center;verticalAlign=middle;whiteSpace=wrap;rounded=0;" parent="1" vertex="1">
          <mxGeometry x="460" y="1160" width="60" height="30" as="geometry" />
        </mxCell>
        <mxCell id="TASuhm_qrvJY3Lz54P2R-36" style="edgeStyle=orthogonalEdgeStyle;rounded=0;orthogonalLoop=1;jettySize=auto;html=1;" parent="1" source="TASuhm_qrvJY3Lz54P2R-32" edge="1">
          <mxGeometry relative="1" as="geometry">
            <mxPoint x="440" y="715" as="targetPoint" />
          </mxGeometry>
        </mxCell>
        <mxCell id="TASuhm_qrvJY3Lz54P2R-37" value="No" style="edgeLabel;html=1;align=center;verticalAlign=middle;resizable=0;points=[];" parent="TASuhm_qrvJY3Lz54P2R-36" vertex="1" connectable="0">
          <mxGeometry x="-0.1983" y="-1" relative="1" as="geometry">
            <mxPoint x="5" y="-1" as="offset" />
          </mxGeometry>
        </mxCell>
        <mxCell id="TASuhm_qrvJY3Lz54P2R-50" style="edgeStyle=orthogonalEdgeStyle;rounded=0;orthogonalLoop=1;jettySize=auto;html=1;" parent="1" source="TASuhm_qrvJY3Lz54P2R-32" edge="1">
          <mxGeometry relative="1" as="geometry">
            <mxPoint x="320" y="820" as="targetPoint" />
          </mxGeometry>
        </mxCell>
        <mxCell id="TASuhm_qrvJY3Lz54P2R-51" value="Yes" style="edgeLabel;html=1;align=center;verticalAlign=middle;resizable=0;points=[];" parent="TASuhm_qrvJY3Lz54P2R-50" vertex="1" connectable="0">
          <mxGeometry x="-0.2183" relative="1" as="geometry">
            <mxPoint as="offset" />
          </mxGeometry>
        </mxCell>
        <mxCell id="TASuhm_qrvJY3Lz54P2R-32" value="Has stored flows?" style="text;html=1;align=center;verticalAlign=middle;whiteSpace=wrap;rounded=0;" parent="1" vertex="1">
          <mxGeometry x="290" y="700" width="60" height="30" as="geometry" />
        </mxCell>
        <mxCell id="TASuhm_qrvJY3Lz54P2R-56" style="edgeStyle=orthogonalEdgeStyle;rounded=0;orthogonalLoop=1;jettySize=auto;html=1;" parent="1" source="TASuhm_qrvJY3Lz54P2R-34" target="TASuhm_qrvJY3Lz54P2R-52" edge="1">
          <mxGeometry relative="1" as="geometry" />
        </mxCell>
        <mxCell id="TASuhm_qrvJY3Lz54P2R-59" value="Yes" style="edgeLabel;html=1;align=center;verticalAlign=middle;resizable=0;points=[];" parent="TASuhm_qrvJY3Lz54P2R-56" vertex="1" connectable="0">
          <mxGeometry x="-0.1492" relative="1" as="geometry">
            <mxPoint as="offset" />
          </mxGeometry>
        </mxCell>
        <mxCell id="TASuhm_qrvJY3Lz54P2R-34" value="Has stored session id?" style="text;html=1;align=center;verticalAlign=middle;whiteSpace=wrap;rounded=0;" parent="1" vertex="1">
          <mxGeometry x="290" y="830" width="60" height="30" as="geometry" />
        </mxCell>
        <mxCell id="TASuhm_qrvJY3Lz54P2R-44" style="edgeStyle=orthogonalEdgeStyle;rounded=0;orthogonalLoop=1;jettySize=auto;html=1;" parent="1" source="TASuhm_qrvJY3Lz54P2R-38" edge="1">
          <mxGeometry relative="1" as="geometry">
            <mxPoint x="320" y="820" as="targetPoint" />
            <Array as="points">
              <mxPoint x="630" y="780" />
              <mxPoint x="330" y="780" />
              <mxPoint x="330" y="800" />
              <mxPoint x="320" y="800" />
            </Array>
          </mxGeometry>
        </mxCell>
        <mxCell id="TASuhm_qrvJY3Lz54P2R-38" value="Store (memory) flow list" style="text;html=1;align=center;verticalAlign=middle;whiteSpace=wrap;rounded=0;" parent="1" vertex="1">
          <mxGeometry x="600" y="700" width="60" height="30" as="geometry" />
        </mxCell>
        <mxCell id="TASuhm_qrvJY3Lz54P2R-60" style="edgeStyle=orthogonalEdgeStyle;rounded=0;orthogonalLoop=1;jettySize=auto;html=1;" parent="1" source="TASuhm_qrvJY3Lz54P2R-52" edge="1">
          <mxGeometry relative="1" as="geometry">
            <mxPoint x="390" y="980" as="targetPoint" />
          </mxGeometry>
        </mxCell>
        <mxCell id="TASuhm_qrvJY3Lz54P2R-61" value="No" style="edgeLabel;html=1;align=center;verticalAlign=middle;resizable=0;points=[];" parent="TASuhm_qrvJY3Lz54P2R-60" vertex="1" connectable="0">
          <mxGeometry x="0.1325" relative="1" as="geometry">
            <mxPoint as="offset" />
          </mxGeometry>
        </mxCell>
        <mxCell id="TASuhm_qrvJY3Lz54P2R-71" style="edgeStyle=orthogonalEdgeStyle;rounded=0;orthogonalLoop=1;jettySize=auto;html=1;" parent="1" source="TASuhm_qrvJY3Lz54P2R-52" target="TASuhm_qrvJY3Lz54P2R-64" edge="1">
          <mxGeometry relative="1" as="geometry" />
        </mxCell>
        <mxCell id="TASuhm_qrvJY3Lz54P2R-79" value="Yes" style="edgeLabel;html=1;align=center;verticalAlign=middle;resizable=0;points=[];" parent="TASuhm_qrvJY3Lz54P2R-71" vertex="1" connectable="0">
          <mxGeometry x="-0.2808" y="1" relative="1" as="geometry">
            <mxPoint as="offset" />
          </mxGeometry>
        </mxCell>
        <mxCell id="TASuhm_qrvJY3Lz54P2R-52" value="Has stored interactions?" style="text;html=1;align=center;verticalAlign=middle;whiteSpace=wrap;rounded=0;" parent="1" vertex="1">
          <mxGeometry x="290" y="965" width="60" height="30" as="geometry" />
        </mxCell>
        <mxCell id="TASuhm_qrvJY3Lz54P2R-53" style="edgeStyle=orthogonalEdgeStyle;rounded=0;orthogonalLoop=1;jettySize=auto;html=1;entryX=-0.053;entryY=0.519;entryDx=0;entryDy=0;entryPerimeter=0;" parent="1" source="TASuhm_qrvJY3Lz54P2R-34" target="TASuhm_qrvJY3Lz54P2R-20" edge="1">
          <mxGeometry relative="1" as="geometry" />
        </mxCell>
        <mxCell id="TASuhm_qrvJY3Lz54P2R-58" value="No" style="edgeLabel;html=1;align=center;verticalAlign=middle;resizable=0;points=[];" parent="TASuhm_qrvJY3Lz54P2R-53" vertex="1" connectable="0">
          <mxGeometry x="-0.2012" relative="1" as="geometry">
            <mxPoint as="offset" />
          </mxGeometry>
        </mxCell>
        <mxCell id="TASuhm_qrvJY3Lz54P2R-69" style="edgeStyle=orthogonalEdgeStyle;rounded=0;orthogonalLoop=1;jettySize=auto;html=1;exitX=1;exitY=0.5;exitDx=0;exitDy=0;entryX=0;entryY=0.5;entryDx=0;entryDy=0;" parent="1" source="TASuhm_qrvJY3Lz54P2R-54" target="TASuhm_qrvJY3Lz54P2R-68" edge="1">
          <mxGeometry relative="1" as="geometry" />
        </mxCell>
        <mxCell id="TASuhm_qrvJY3Lz54P2R-54" value="Store (local DB) session ID" style="text;html=1;align=center;verticalAlign=middle;whiteSpace=wrap;rounded=0;" parent="1" vertex="1">
          <mxGeometry x="600" y="830" width="60" height="30" as="geometry" />
        </mxCell>
        <mxCell id="TASuhm_qrvJY3Lz54P2R-62" value="Store (memory) interactions" style="text;html=1;align=center;verticalAlign=middle;whiteSpace=wrap;rounded=0;" parent="1" vertex="1">
          <mxGeometry x="610" y="965" width="60" height="30" as="geometry" />
        </mxCell>
        <mxCell id="TASuhm_qrvJY3Lz54P2R-76" style="edgeStyle=orthogonalEdgeStyle;rounded=0;orthogonalLoop=1;jettySize=auto;html=1;" parent="1" source="TASuhm_qrvJY3Lz54P2R-64" edge="1">
          <mxGeometry relative="1" as="geometry">
            <mxPoint x="410" y="1074.9999999999998" as="targetPoint" />
          </mxGeometry>
        </mxCell>
        <mxCell id="TASuhm_qrvJY3Lz54P2R-80" value="No" style="edgeLabel;html=1;align=center;verticalAlign=middle;resizable=0;points=[];" parent="TASuhm_qrvJY3Lz54P2R-76" vertex="1" connectable="0">
          <mxGeometry x="-0.1612" relative="1" as="geometry">
            <mxPoint as="offset" />
          </mxGeometry>
        </mxCell>
        <mxCell id="TASuhm_qrvJY3Lz54P2R-64" value="Has stored steps?" style="text;html=1;align=center;verticalAlign=middle;whiteSpace=wrap;rounded=0;" parent="1" vertex="1">
          <mxGeometry x="290" y="1060" width="60" height="30" as="geometry" />
        </mxCell>
        <mxCell id="TASuhm_qrvJY3Lz54P2R-81" style="edgeStyle=orthogonalEdgeStyle;rounded=0;orthogonalLoop=1;jettySize=auto;html=1;" parent="1" source="TASuhm_qrvJY3Lz54P2R-65" edge="1">
          <mxGeometry relative="1" as="geometry">
            <mxPoint x="320" y="1150.0000000000002" as="targetPoint" />
            <Array as="points">
              <mxPoint x="640" y="1130" />
              <mxPoint x="321" y="1130" />
              <mxPoint x="321" y="1150" />
            </Array>
          </mxGeometry>
        </mxCell>
        <mxCell id="TASuhm_qrvJY3Lz54P2R-65" value="Store (memory) steps" style="text;html=1;align=center;verticalAlign=middle;whiteSpace=wrap;rounded=0;" parent="1" vertex="1">
          <mxGeometry x="610" y="1060" width="60" height="30" as="geometry" />
        </mxCell>
        <mxCell id="TASuhm_qrvJY3Lz54P2R-74" style="edgeStyle=orthogonalEdgeStyle;rounded=0;orthogonalLoop=1;jettySize=auto;html=1;entryX=0.5;entryY=0;entryDx=0;entryDy=0;" parent="1" source="TASuhm_qrvJY3Lz54P2R-66" target="TASuhm_qrvJY3Lz54P2R-67" edge="1">
          <mxGeometry relative="1" as="geometry" />
        </mxCell>
        <mxCell id="TASuhm_qrvJY3Lz54P2R-92" value="Yes" style="edgeLabel;html=1;align=center;verticalAlign=middle;resizable=0;points=[];" parent="TASuhm_qrvJY3Lz54P2R-74" vertex="1" connectable="0">
          <mxGeometry x="-0.4267" y="1" relative="1" as="geometry">
            <mxPoint as="offset" />
          </mxGeometry>
        </mxCell>
        <mxCell id="TASuhm_qrvJY3Lz54P2R-75" style="edgeStyle=orthogonalEdgeStyle;rounded=0;orthogonalLoop=1;jettySize=auto;html=1;" parent="1" source="TASuhm_qrvJY3Lz54P2R-66" edge="1">
          <mxGeometry relative="1" as="geometry">
            <mxPoint x="430" y="1175.0000000000002" as="targetPoint" />
          </mxGeometry>
        </mxCell>
        <mxCell id="TASuhm_qrvJY3Lz54P2R-84" value="No" style="edgeLabel;html=1;align=center;verticalAlign=middle;resizable=0;points=[];" parent="TASuhm_qrvJY3Lz54P2R-75" vertex="1" connectable="0">
          <mxGeometry x="-0.0795" y="2" relative="1" as="geometry">
            <mxPoint as="offset" />
          </mxGeometry>
        </mxCell>
        <mxCell id="TASuhm_qrvJY3Lz54P2R-66" value="Has stored step_num ?" style="text;html=1;align=center;verticalAlign=middle;whiteSpace=wrap;rounded=0;" parent="1" vertex="1">
          <mxGeometry x="285" y="1160" width="70" height="30" as="geometry" />
        </mxCell>
        <mxCell id="TASuhm_qrvJY3Lz54P2R-86" style="edgeStyle=orthogonalEdgeStyle;rounded=0;orthogonalLoop=1;jettySize=auto;html=1;" parent="1" source="TASuhm_qrvJY3Lz54P2R-67" edge="1">
          <mxGeometry relative="1" as="geometry">
            <mxPoint x="440" y="1280.0000000000002" as="targetPoint" />
          </mxGeometry>
        </mxCell>
        <mxCell id="TASuhm_qrvJY3Lz54P2R-87" value="Yes" style="edgeLabel;html=1;align=center;verticalAlign=middle;resizable=0;points=[];" parent="TASuhm_qrvJY3Lz54P2R-86" vertex="1" connectable="0">
          <mxGeometry x="-0.4106" y="-1" relative="1" as="geometry">
            <mxPoint x="13" y="-1" as="offset" />
          </mxGeometry>
        </mxCell>
        <mxCell id="TASuhm_qrvJY3Lz54P2R-94" style="edgeStyle=orthogonalEdgeStyle;rounded=0;orthogonalLoop=1;jettySize=auto;html=1;entryX=0.5;entryY=0;entryDx=0;entryDy=0;" parent="1" source="TASuhm_qrvJY3Lz54P2R-67" target="TASuhm_qrvJY3Lz54P2R-93" edge="1">
          <mxGeometry relative="1" as="geometry" />
        </mxCell>
        <mxCell id="TASuhm_qrvJY3Lz54P2R-95" value="No" style="edgeLabel;html=1;align=center;verticalAlign=middle;resizable=0;points=[];" parent="TASuhm_qrvJY3Lz54P2R-94" vertex="1" connectable="0">
          <mxGeometry x="-0.2104" relative="1" as="geometry">
            <mxPoint as="offset" />
          </mxGeometry>
        </mxCell>
        <mxCell id="TASuhm_qrvJY3Lz54P2R-67" value="step_num == 0?" style="text;html=1;align=center;verticalAlign=middle;whiteSpace=wrap;rounded=0;" parent="1" vertex="1">
          <mxGeometry x="275" y="1265" width="90" height="30" as="geometry" />
        </mxCell>
        <mxCell id="TASuhm_qrvJY3Lz54P2R-70" style="edgeStyle=orthogonalEdgeStyle;rounded=0;orthogonalLoop=1;jettySize=auto;html=1;entryX=0.5;entryY=0;entryDx=0;entryDy=0;" parent="1" source="TASuhm_qrvJY3Lz54P2R-68" target="TASuhm_qrvJY3Lz54P2R-52" edge="1">
          <mxGeometry relative="1" as="geometry">
            <Array as="points">
              <mxPoint x="765" y="930" />
              <mxPoint x="320" y="930" />
            </Array>
          </mxGeometry>
        </mxCell>
        <mxCell id="TASuhm_qrvJY3Lz54P2R-68" value="Store (memory) step_num = 0" style="text;html=1;align=center;verticalAlign=middle;whiteSpace=wrap;rounded=0;" parent="1" vertex="1">
          <mxGeometry x="720" y="830" width="90" height="30" as="geometry" />
        </mxCell>
        <mxCell id="TASuhm_qrvJY3Lz54P2R-73" style="edgeStyle=orthogonalEdgeStyle;rounded=0;orthogonalLoop=1;jettySize=auto;html=1;entryX=0.5;entryY=-0.333;entryDx=0;entryDy=0;entryPerimeter=0;" parent="1" source="TASuhm_qrvJY3Lz54P2R-64" target="TASuhm_qrvJY3Lz54P2R-66" edge="1">
          <mxGeometry relative="1" as="geometry" />
        </mxCell>
        <mxCell id="TASuhm_qrvJY3Lz54P2R-78" value="Yes" style="edgeLabel;html=1;align=center;verticalAlign=middle;resizable=0;points=[];" parent="TASuhm_qrvJY3Lz54P2R-73" vertex="1" connectable="0">
          <mxGeometry x="-0.2001" relative="1" as="geometry">
            <mxPoint as="offset" />
          </mxGeometry>
        </mxCell>
        <mxCell id="TASuhm_qrvJY3Lz54P2R-91" style="edgeStyle=orthogonalEdgeStyle;rounded=0;orthogonalLoop=1;jettySize=auto;html=1;entryX=0.5;entryY=0;entryDx=0;entryDy=0;" parent="1" source="TASuhm_qrvJY3Lz54P2R-82" target="TASuhm_qrvJY3Lz54P2R-67" edge="1">
          <mxGeometry relative="1" as="geometry">
            <Array as="points">
              <mxPoint x="640" y="1240" />
              <mxPoint x="320" y="1240" />
            </Array>
          </mxGeometry>
        </mxCell>
        <mxCell id="TASuhm_qrvJY3Lz54P2R-82" value="Store (memory) step_num" style="text;html=1;align=center;verticalAlign=middle;whiteSpace=wrap;rounded=0;" parent="1" vertex="1">
          <mxGeometry x="610" y="1160" width="60" height="30" as="geometry" />
        </mxCell>
        <mxCell id="TASuhm_qrvJY3Lz54P2R-96" style="edgeStyle=orthogonalEdgeStyle;rounded=0;orthogonalLoop=1;jettySize=auto;html=1;entryX=0.5;entryY=0;entryDx=0;entryDy=0;" parent="1" source="TASuhm_qrvJY3Lz54P2R-85" target="TASuhm_qrvJY3Lz54P2R-93" edge="1">
          <mxGeometry relative="1" as="geometry">
            <Array as="points">
              <mxPoint x="640" y="1330" />
              <mxPoint x="320" y="1330" />
            </Array>
          </mxGeometry>
        </mxCell>
        <mxCell id="TASuhm_qrvJY3Lz54P2R-85" value="Store (memory) step_num" style="text;html=1;align=center;verticalAlign=middle;whiteSpace=wrap;rounded=0;" parent="1" vertex="1">
          <mxGeometry x="610" y="1265" width="60" height="30" as="geometry" />
        </mxCell>
        <mxCell id="TASuhm_qrvJY3Lz54P2R-99" style="edgeStyle=orthogonalEdgeStyle;rounded=0;orthogonalLoop=1;jettySize=auto;html=1;" parent="1" source="TASuhm_qrvJY3Lz54P2R-93" edge="1">
          <mxGeometry relative="1" as="geometry">
            <mxPoint x="320" y="1460" as="targetPoint" />
          </mxGeometry>
        </mxCell>
        <mxCell id="TASuhm_qrvJY3Lz54P2R-93" value="Get current step&lt;br&gt;&lt;span style=&quot;font-family: Times; font-size: medium; text-align: start; white-space: pre;&quot;&gt;/flow/{session_id}/{step_number}&lt;/span&gt;" style="text;html=1;align=center;verticalAlign=middle;whiteSpace=wrap;rounded=0;" parent="1" vertex="1">
          <mxGeometry x="290" y="1350" width="60" height="30" as="geometry" />
        </mxCell>
        <mxCell id="TASuhm_qrvJY3Lz54P2R-114" style="edgeStyle=orthogonalEdgeStyle;rounded=0;orthogonalLoop=1;jettySize=auto;html=1;entryX=0.5;entryY=0;entryDx=0;entryDy=0;" parent="1" source="TASuhm_qrvJY3Lz54P2R-97" target="TASuhm_qrvJY3Lz54P2R-113" edge="1">
          <mxGeometry relative="1" as="geometry">
            <Array as="points">
              <mxPoint x="320" y="1570" />
              <mxPoint x="470" y="1570" />
              <mxPoint x="470" y="1620" />
            </Array>
          </mxGeometry>
        </mxCell>
        <mxCell id="TASuhm_qrvJY3Lz54P2R-115" style="edgeStyle=orthogonalEdgeStyle;rounded=0;orthogonalLoop=1;jettySize=auto;html=1;entryX=0.5;entryY=0;entryDx=0;entryDy=0;" parent="1" source="TASuhm_qrvJY3Lz54P2R-97" target="TASuhm_qrvJY3Lz54P2R-112" edge="1">
          <mxGeometry relative="1" as="geometry">
            <Array as="points">
              <mxPoint x="320" y="1570" />
              <mxPoint x="620" y="1570" />
              <mxPoint x="620" y="1620" />
            </Array>
          </mxGeometry>
        </mxCell>
        <mxCell id="TASuhm_qrvJY3Lz54P2R-388" style="edgeStyle=orthogonalEdgeStyle;rounded=0;orthogonalLoop=1;jettySize=auto;html=1;entryX=0.5;entryY=0;entryDx=0;entryDy=0;" parent="1" source="TASuhm_qrvJY3Lz54P2R-97" target="TASuhm_qrvJY3Lz54P2R-387" edge="1">
          <mxGeometry relative="1" as="geometry">
            <Array as="points">
              <mxPoint x="320" y="1570" />
              <mxPoint x="160" y="1570" />
              <mxPoint x="160" y="1930" />
              <mxPoint x="288" y="1930" />
            </Array>
          </mxGeometry>
        </mxCell>
        <mxCell id="TASuhm_qrvJY3Lz54P2R-97" value="User interactions" style="shape=umlActor;verticalLabelPosition=bottom;verticalAlign=top;html=1;outlineConnect=0;" parent="1" vertex="1">
          <mxGeometry x="305" y="1470" width="30" height="60" as="geometry" />
        </mxCell>
        <mxCell id="TASuhm_qrvJY3Lz54P2R-101" style="edgeStyle=orthogonalEdgeStyle;rounded=0;orthogonalLoop=1;jettySize=auto;html=1;entryX=0.5;entryY=0;entryDx=0;entryDy=0;" parent="1" source="TASuhm_qrvJY3Lz54P2R-100" target="TASuhm_qrvJY3Lz54P2R-4" edge="1">
          <mxGeometry relative="1" as="geometry" />
        </mxCell>
        <mxCell id="TASuhm_qrvJY3Lz54P2R-100" value="User interactions" style="shape=umlActor;verticalLabelPosition=bottom;verticalAlign=top;html=1;outlineConnect=0;" parent="1" vertex="1">
          <mxGeometry x="175" y="-70" width="30" height="60" as="geometry" />
        </mxCell>
        <mxCell id="TASuhm_qrvJY3Lz54P2R-105" value="" style="edgeStyle=orthogonalEdgeStyle;rounded=0;orthogonalLoop=1;jettySize=auto;html=1;entryX=0.5;entryY=0;entryDx=0;entryDy=0;" parent="1" source="TASuhm_qrvJY3Lz54P2R-7" target="TASuhm_qrvJY3Lz54P2R-104" edge="1">
          <mxGeometry relative="1" as="geometry">
            <mxPoint x="160" y="155" as="sourcePoint" />
            <mxPoint x="100" y="340" as="targetPoint" />
          </mxGeometry>
        </mxCell>
        <mxCell id="TASuhm_qrvJY3Lz54P2R-107" value="No" style="edgeLabel;html=1;align=center;verticalAlign=middle;resizable=0;points=[];" parent="TASuhm_qrvJY3Lz54P2R-105" vertex="1" connectable="0">
          <mxGeometry x="-0.2477" relative="1" as="geometry">
            <mxPoint as="offset" />
          </mxGeometry>
        </mxCell>
        <mxCell id="TASuhm_qrvJY3Lz54P2R-108" style="edgeStyle=orthogonalEdgeStyle;rounded=0;orthogonalLoop=1;jettySize=auto;html=1;entryX=0.5;entryY=0;entryDx=0;entryDy=0;" parent="1" source="TASuhm_qrvJY3Lz54P2R-104" target="TASuhm_qrvJY3Lz54P2R-1" edge="1">
          <mxGeometry relative="1" as="geometry" />
        </mxCell>
        <mxCell id="TASuhm_qrvJY3Lz54P2R-104" value="User interactions" style="shape=umlActor;verticalLabelPosition=bottom;verticalAlign=top;html=1;outlineConnect=0;" parent="1" vertex="1">
          <mxGeometry x="85" y="220" width="30" height="60" as="geometry" />
        </mxCell>
        <mxCell id="TASuhm_qrvJY3Lz54P2R-151" style="edgeStyle=orthogonalEdgeStyle;rounded=0;orthogonalLoop=1;jettySize=auto;html=1;entryX=0.5;entryY=0;entryDx=0;entryDy=0;" parent="1" source="TASuhm_qrvJY3Lz54P2R-109" target="TASuhm_qrvJY3Lz54P2R-149" edge="1">
          <mxGeometry relative="1" as="geometry" />
        </mxCell>
        <mxCell id="TASuhm_qrvJY3Lz54P2R-109" value="Navigate to OnboardingPage" style="text;html=1;align=center;verticalAlign=middle;whiteSpace=wrap;rounded=0;" parent="1" vertex="1">
          <mxGeometry x="-80" y="610" width="60" height="30" as="geometry" />
        </mxCell>
        <mxCell id="TASuhm_qrvJY3Lz54P2R-117" style="edgeStyle=orthogonalEdgeStyle;rounded=0;orthogonalLoop=1;jettySize=auto;html=1;entryX=0.5;entryY=0;entryDx=0;entryDy=0;" parent="1" source="TASuhm_qrvJY3Lz54P2R-112" target="TASuhm_qrvJY3Lz54P2R-116" edge="1">
          <mxGeometry relative="1" as="geometry" />
        </mxCell>
        <mxCell id="TASuhm_qrvJY3Lz54P2R-112" value="Navigate to IdeasFeedPage" style="text;html=1;align=center;verticalAlign=middle;whiteSpace=wrap;rounded=0;" parent="1" vertex="1">
          <mxGeometry x="588" y="1620" width="60" height="30" as="geometry" />
        </mxCell>
        <mxCell id="TASuhm_qrvJY3Lz54P2R-122" style="edgeStyle=orthogonalEdgeStyle;rounded=0;orthogonalLoop=1;jettySize=auto;html=1;entryX=0.5;entryY=0;entryDx=0;entryDy=0;" parent="1" source="TASuhm_qrvJY3Lz54P2R-113" target="TASuhm_qrvJY3Lz54P2R-121" edge="1">
          <mxGeometry relative="1" as="geometry" />
        </mxCell>
        <mxCell id="TASuhm_qrvJY3Lz54P2R-113" value="Navigate to ProfilePage" style="text;html=1;align=center;verticalAlign=middle;whiteSpace=wrap;rounded=0;" parent="1" vertex="1">
          <mxGeometry x="438" y="1620" width="60" height="30" as="geometry" />
        </mxCell>
        <mxCell id="TASuhm_qrvJY3Lz54P2R-119" style="edgeStyle=orthogonalEdgeStyle;rounded=0;orthogonalLoop=1;jettySize=auto;html=1;" parent="1" source="TASuhm_qrvJY3Lz54P2R-116" target="TASuhm_qrvJY3Lz54P2R-118" edge="1">
          <mxGeometry relative="1" as="geometry" />
        </mxCell>
        <mxCell id="TASuhm_qrvJY3Lz54P2R-116" value="Get user ideas&lt;br&gt;&lt;span style=&quot;font-family: Times; font-size: medium; text-align: start; white-space: pre;&quot;&gt;/user/idea-trees&lt;/span&gt;" style="text;html=1;align=center;verticalAlign=middle;whiteSpace=wrap;rounded=0;" parent="1" vertex="1">
          <mxGeometry x="588" y="1700" width="60" height="30" as="geometry" />
        </mxCell>
        <mxCell id="TASuhm_qrvJY3Lz54P2R-120" style="edgeStyle=orthogonalEdgeStyle;rounded=0;orthogonalLoop=1;jettySize=auto;html=1;entryX=1;entryY=0.75;entryDx=0;entryDy=0;" parent="1" source="TASuhm_qrvJY3Lz54P2R-118" target="TASuhm_qrvJY3Lz54P2R-15" edge="1">
          <mxGeometry relative="1" as="geometry">
            <Array as="points">
              <mxPoint x="840" y="1820" />
              <mxPoint x="840" y="632" />
            </Array>
          </mxGeometry>
        </mxCell>
        <mxCell id="TASuhm_qrvJY3Lz54P2R-128" style="edgeStyle=orthogonalEdgeStyle;rounded=0;orthogonalLoop=1;jettySize=auto;html=1;entryX=1;entryY=0.5;entryDx=0;entryDy=0;" parent="1" source="TASuhm_qrvJY3Lz54P2R-118" target="TASuhm_qrvJY3Lz54P2R-113" edge="1">
          <mxGeometry relative="1" as="geometry" />
        </mxCell>
        <mxCell id="TASuhm_qrvJY3Lz54P2R-450" style="edgeStyle=orthogonalEdgeStyle;rounded=0;orthogonalLoop=1;jettySize=auto;html=1;entryX=0;entryY=0.5;entryDx=0;entryDy=0;" parent="1" source="TASuhm_qrvJY3Lz54P2R-118" target="TASuhm_qrvJY3Lz54P2R-449" edge="1">
          <mxGeometry relative="1" as="geometry" />
        </mxCell>
        <mxCell id="TASuhm_qrvJY3Lz54P2R-118" value="User interactions" style="shape=umlActor;verticalLabelPosition=bottom;verticalAlign=top;html=1;outlineConnect=0;" parent="1" vertex="1">
          <mxGeometry x="602" y="1880" width="30" height="60" as="geometry" />
        </mxCell>
        <mxCell id="TASuhm_qrvJY3Lz54P2R-124" style="edgeStyle=orthogonalEdgeStyle;rounded=0;orthogonalLoop=1;jettySize=auto;html=1;entryX=1;entryY=0.5;entryDx=0;entryDy=0;" parent="1" source="TASuhm_qrvJY3Lz54P2R-121" target="TASuhm_qrvJY3Lz54P2R-123" edge="1">
          <mxGeometry relative="1" as="geometry" />
        </mxCell>
        <mxCell id="TASuhm_qrvJY3Lz54P2R-125" value="No" style="edgeLabel;html=1;align=center;verticalAlign=middle;resizable=0;points=[];" parent="TASuhm_qrvJY3Lz54P2R-124" vertex="1" connectable="0">
          <mxGeometry x="-0.1826" relative="1" as="geometry">
            <mxPoint as="offset" />
          </mxGeometry>
        </mxCell>
        <mxCell id="TASuhm_qrvJY3Lz54P2R-137" style="edgeStyle=orthogonalEdgeStyle;rounded=0;orthogonalLoop=1;jettySize=auto;html=1;entryX=0.5;entryY=0;entryDx=0;entryDy=0;" parent="1" source="TASuhm_qrvJY3Lz54P2R-121" target="TASuhm_qrvJY3Lz54P2R-129" edge="1">
          <mxGeometry relative="1" as="geometry" />
        </mxCell>
        <mxCell id="TASuhm_qrvJY3Lz54P2R-138" value="Yes" style="edgeLabel;html=1;align=center;verticalAlign=middle;resizable=0;points=[];" parent="TASuhm_qrvJY3Lz54P2R-137" vertex="1" connectable="0">
          <mxGeometry x="-0.4469" y="1" relative="1" as="geometry">
            <mxPoint as="offset" />
          </mxGeometry>
        </mxCell>
        <mxCell id="TASuhm_qrvJY3Lz54P2R-121" value="Has stored user info?" style="text;html=1;align=center;verticalAlign=middle;whiteSpace=wrap;rounded=0;" parent="1" vertex="1">
          <mxGeometry x="435.5" y="1700" width="65" height="30" as="geometry" />
        </mxCell>
        <mxCell id="TASuhm_qrvJY3Lz54P2R-127" style="edgeStyle=orthogonalEdgeStyle;rounded=0;orthogonalLoop=1;jettySize=auto;html=1;entryX=1;entryY=0.5;entryDx=0;entryDy=0;" parent="1" source="TASuhm_qrvJY3Lz54P2R-123" target="TASuhm_qrvJY3Lz54P2R-126" edge="1">
          <mxGeometry relative="1" as="geometry" />
        </mxCell>
        <mxCell id="TASuhm_qrvJY3Lz54P2R-123" value="Get user info&lt;br&gt;&lt;span style=&quot;font-family: Times; font-size: medium; text-align: start; white-space: pre;&quot;&gt;/user/&lt;/span&gt;" style="text;html=1;align=center;verticalAlign=middle;whiteSpace=wrap;rounded=0;" parent="1" vertex="1">
          <mxGeometry x="318" y="1700" width="60" height="30" as="geometry" />
        </mxCell>
        <mxCell id="TASuhm_qrvJY3Lz54P2R-135" style="edgeStyle=orthogonalEdgeStyle;rounded=0;orthogonalLoop=1;jettySize=auto;html=1;" parent="1" source="TASuhm_qrvJY3Lz54P2R-126" edge="1">
          <mxGeometry relative="1" as="geometry">
            <mxPoint x="468" y="1770" as="targetPoint" />
            <Array as="points">
              <mxPoint x="228" y="1760" />
              <mxPoint x="468" y="1760" />
            </Array>
          </mxGeometry>
        </mxCell>
        <mxCell id="TASuhm_qrvJY3Lz54P2R-126" value="Store (memory) user info" style="text;html=1;align=center;verticalAlign=middle;whiteSpace=wrap;rounded=0;" parent="1" vertex="1">
          <mxGeometry x="198" y="1700" width="60" height="30" as="geometry" />
        </mxCell>
        <mxCell id="TASuhm_qrvJY3Lz54P2R-131" style="edgeStyle=orthogonalEdgeStyle;rounded=0;orthogonalLoop=1;jettySize=auto;html=1;entryX=1;entryY=0.5;entryDx=0;entryDy=0;" parent="1" source="TASuhm_qrvJY3Lz54P2R-129" target="TASuhm_qrvJY3Lz54P2R-130" edge="1">
          <mxGeometry relative="1" as="geometry" />
        </mxCell>
        <mxCell id="TASuhm_qrvJY3Lz54P2R-132" value="No" style="edgeLabel;html=1;align=center;verticalAlign=middle;resizable=0;points=[];" parent="TASuhm_qrvJY3Lz54P2R-131" vertex="1" connectable="0">
          <mxGeometry x="-0.2113" relative="1" as="geometry">
            <mxPoint as="offset" />
          </mxGeometry>
        </mxCell>
        <mxCell id="TASuhm_qrvJY3Lz54P2R-129" value="Has stored social account?" style="text;html=1;align=center;verticalAlign=middle;whiteSpace=wrap;rounded=0;" parent="1" vertex="1">
          <mxGeometry x="433" y="1780" width="70" height="30" as="geometry" />
        </mxCell>
        <mxCell id="TASuhm_qrvJY3Lz54P2R-134" style="edgeStyle=orthogonalEdgeStyle;rounded=0;orthogonalLoop=1;jettySize=auto;html=1;entryX=1;entryY=0.5;entryDx=0;entryDy=0;" parent="1" source="TASuhm_qrvJY3Lz54P2R-130" target="TASuhm_qrvJY3Lz54P2R-133" edge="1">
          <mxGeometry relative="1" as="geometry" />
        </mxCell>
        <mxCell id="TASuhm_qrvJY3Lz54P2R-130" value="Get social account&lt;br&gt;&lt;span style=&quot;font-family: Times; font-size: medium; text-align: start; white-space: pre;&quot;&gt;/user/socials&lt;/span&gt;" style="text;html=1;align=center;verticalAlign=middle;whiteSpace=wrap;rounded=0;" parent="1" vertex="1">
          <mxGeometry x="318" y="1780" width="60" height="30" as="geometry" />
        </mxCell>
        <mxCell id="TASuhm_qrvJY3Lz54P2R-133" value="Store (memory) social account" style="text;html=1;align=center;verticalAlign=middle;whiteSpace=wrap;rounded=0;" parent="1" vertex="1">
          <mxGeometry x="178" y="1780" width="80" height="30" as="geometry" />
        </mxCell>
        <mxCell id="TASuhm_qrvJY3Lz54P2R-139" value="User interactions" style="shape=umlActor;verticalLabelPosition=bottom;verticalAlign=top;html=1;outlineConnect=0;" parent="1" vertex="1">
          <mxGeometry x="453" y="1880" width="30" height="60" as="geometry" />
        </mxCell>
        <mxCell id="TASuhm_qrvJY3Lz54P2R-140" style="edgeStyle=orthogonalEdgeStyle;rounded=0;orthogonalLoop=1;jettySize=auto;html=1;entryX=0.5;entryY=0;entryDx=0;entryDy=0;entryPerimeter=0;" parent="1" source="TASuhm_qrvJY3Lz54P2R-129" target="TASuhm_qrvJY3Lz54P2R-139" edge="1">
          <mxGeometry relative="1" as="geometry" />
        </mxCell>
        <mxCell id="TASuhm_qrvJY3Lz54P2R-144" value="Yes" style="edgeLabel;html=1;align=center;verticalAlign=middle;resizable=0;points=[];" parent="TASuhm_qrvJY3Lz54P2R-140" vertex="1" connectable="0">
          <mxGeometry x="-0.2762" relative="1" as="geometry">
            <mxPoint as="offset" />
          </mxGeometry>
        </mxCell>
        <mxCell id="TASuhm_qrvJY3Lz54P2R-143" style="edgeStyle=orthogonalEdgeStyle;rounded=0;orthogonalLoop=1;jettySize=auto;html=1;entryX=0.5;entryY=0;entryDx=0;entryDy=0;entryPerimeter=0;" parent="1" source="TASuhm_qrvJY3Lz54P2R-133" target="TASuhm_qrvJY3Lz54P2R-139" edge="1">
          <mxGeometry relative="1" as="geometry">
            <Array as="points">
              <mxPoint x="218" y="1850" />
              <mxPoint x="468" y="1850" />
            </Array>
          </mxGeometry>
        </mxCell>
        <mxCell id="TASuhm_qrvJY3Lz54P2R-196" style="edgeStyle=orthogonalEdgeStyle;rounded=0;orthogonalLoop=1;jettySize=auto;html=1;entryX=1;entryY=0.5;entryDx=0;entryDy=0;" parent="1" source="TASuhm_qrvJY3Lz54P2R-146" target="TASuhm_qrvJY3Lz54P2R-152" edge="1">
          <mxGeometry relative="1" as="geometry" />
        </mxCell>
        <mxCell id="TASuhm_qrvJY3Lz54P2R-146" value="Get Flows&lt;br&gt;&lt;span style=&quot;font-family: Times; font-size: medium; text-align: start; white-space: pre;&quot;&gt;/flow/get-all&lt;/span&gt;" style="text;html=1;align=center;verticalAlign=middle;whiteSpace=wrap;rounded=0;" parent="1" vertex="1">
          <mxGeometry x="-250" y="700" width="60" height="30" as="geometry" />
        </mxCell>
        <mxCell id="TASuhm_qrvJY3Lz54P2R-176" style="edgeStyle=orthogonalEdgeStyle;rounded=0;orthogonalLoop=1;jettySize=auto;html=1;" parent="1" source="TASuhm_qrvJY3Lz54P2R-149" edge="1">
          <mxGeometry relative="1" as="geometry">
            <mxPoint x="-50" y="810" as="targetPoint" />
          </mxGeometry>
        </mxCell>
        <mxCell id="TASuhm_qrvJY3Lz54P2R-177" value="Yes" style="edgeLabel;html=1;align=center;verticalAlign=middle;resizable=0;points=[];" parent="TASuhm_qrvJY3Lz54P2R-176" vertex="1" connectable="0">
          <mxGeometry x="-0.0977" y="-1" relative="1" as="geometry">
            <mxPoint as="offset" />
          </mxGeometry>
        </mxCell>
        <mxCell id="TASuhm_qrvJY3Lz54P2R-194" style="edgeStyle=orthogonalEdgeStyle;rounded=0;orthogonalLoop=1;jettySize=auto;html=1;" parent="1" source="TASuhm_qrvJY3Lz54P2R-149" edge="1">
          <mxGeometry relative="1" as="geometry">
            <mxPoint x="-180" y="715" as="targetPoint" />
          </mxGeometry>
        </mxCell>
        <mxCell id="TASuhm_qrvJY3Lz54P2R-195" value="No" style="edgeLabel;html=1;align=center;verticalAlign=middle;resizable=0;points=[];" parent="TASuhm_qrvJY3Lz54P2R-194" vertex="1" connectable="0">
          <mxGeometry x="-0.2706" y="2" relative="1" as="geometry">
            <mxPoint as="offset" />
          </mxGeometry>
        </mxCell>
        <mxCell id="TASuhm_qrvJY3Lz54P2R-149" value="Has stored flows?" style="text;html=1;align=center;verticalAlign=middle;whiteSpace=wrap;rounded=0;" parent="1" vertex="1">
          <mxGeometry x="-80" y="700" width="60" height="30" as="geometry" />
        </mxCell>
        <mxCell id="TASuhm_qrvJY3Lz54P2R-198" style="edgeStyle=orthogonalEdgeStyle;rounded=0;orthogonalLoop=1;jettySize=auto;html=1;" parent="1" source="TASuhm_qrvJY3Lz54P2R-152" edge="1">
          <mxGeometry relative="1" as="geometry">
            <mxPoint x="-50" y="810" as="targetPoint" />
            <Array as="points">
              <mxPoint x="-360" y="780" />
              <mxPoint x="-49" y="780" />
              <mxPoint x="-49" y="810" />
            </Array>
          </mxGeometry>
        </mxCell>
        <mxCell id="TASuhm_qrvJY3Lz54P2R-152" value="Store (memory) flow list" style="text;html=1;align=center;verticalAlign=middle;whiteSpace=wrap;rounded=0;" parent="1" vertex="1">
          <mxGeometry x="-390" y="700" width="60" height="30" as="geometry" />
        </mxCell>
        <mxCell id="TASuhm_qrvJY3Lz54P2R-192" style="edgeStyle=orthogonalEdgeStyle;rounded=0;orthogonalLoop=1;jettySize=auto;html=1;entryX=1;entryY=0.5;entryDx=0;entryDy=0;" parent="1" source="TASuhm_qrvJY3Lz54P2R-153" target="TASuhm_qrvJY3Lz54P2R-155" edge="1">
          <mxGeometry relative="1" as="geometry" />
        </mxCell>
        <mxCell id="TASuhm_qrvJY3Lz54P2R-153" value="Create new session&lt;br&gt;&lt;span style=&quot;font-family: Times; font-size: medium; text-align: start; white-space: pre;&quot;&gt;/flow/session&lt;/span&gt;" style="text;html=1;align=center;verticalAlign=middle;whiteSpace=wrap;rounded=0;" parent="1" vertex="1">
          <mxGeometry x="-260" y="825" width="80" height="40" as="geometry" />
        </mxCell>
        <mxCell id="TASuhm_qrvJY3Lz54P2R-175" style="edgeStyle=orthogonalEdgeStyle;rounded=0;orthogonalLoop=1;jettySize=auto;html=1;entryX=0.5;entryY=0;entryDx=0;entryDy=0;" parent="1" source="TASuhm_qrvJY3Lz54P2R-154" target="TASuhm_qrvJY3Lz54P2R-156" edge="1">
          <mxGeometry relative="1" as="geometry" />
        </mxCell>
        <mxCell id="TASuhm_qrvJY3Lz54P2R-178" value="Yes" style="edgeLabel;html=1;align=center;verticalAlign=middle;resizable=0;points=[];" parent="TASuhm_qrvJY3Lz54P2R-175" vertex="1" connectable="0">
          <mxGeometry x="0.0349" y="-1" relative="1" as="geometry">
            <mxPoint as="offset" />
          </mxGeometry>
        </mxCell>
        <mxCell id="TASuhm_qrvJY3Lz54P2R-190" style="edgeStyle=orthogonalEdgeStyle;rounded=0;orthogonalLoop=1;jettySize=auto;html=1;entryX=1;entryY=0.5;entryDx=0;entryDy=0;" parent="1" source="TASuhm_qrvJY3Lz54P2R-154" target="TASuhm_qrvJY3Lz54P2R-153" edge="1">
          <mxGeometry relative="1" as="geometry" />
        </mxCell>
        <mxCell id="TASuhm_qrvJY3Lz54P2R-191" value="No" style="edgeLabel;html=1;align=center;verticalAlign=middle;resizable=0;points=[];" parent="TASuhm_qrvJY3Lz54P2R-190" vertex="1" connectable="0">
          <mxGeometry x="-0.1867" y="1" relative="1" as="geometry">
            <mxPoint as="offset" />
          </mxGeometry>
        </mxCell>
        <mxCell id="TASuhm_qrvJY3Lz54P2R-154" value="Has stored session id?" style="text;html=1;align=center;verticalAlign=middle;whiteSpace=wrap;rounded=0;" parent="1" vertex="1">
          <mxGeometry x="-80" y="830" width="60" height="30" as="geometry" />
        </mxCell>
        <mxCell id="TASuhm_qrvJY3Lz54P2R-193" style="edgeStyle=orthogonalEdgeStyle;rounded=0;orthogonalLoop=1;jettySize=auto;html=1;entryX=1;entryY=0.5;entryDx=0;entryDy=0;" parent="1" source="TASuhm_qrvJY3Lz54P2R-155" target="TASuhm_qrvJY3Lz54P2R-165" edge="1">
          <mxGeometry relative="1" as="geometry" />
        </mxCell>
        <mxCell id="TASuhm_qrvJY3Lz54P2R-155" value="Store (memory) session ID" style="text;html=1;align=center;verticalAlign=middle;whiteSpace=wrap;rounded=0;" parent="1" vertex="1">
          <mxGeometry x="-390" y="830" width="60" height="30" as="geometry" />
        </mxCell>
        <mxCell id="TASuhm_qrvJY3Lz54P2R-188" style="edgeStyle=orthogonalEdgeStyle;rounded=0;orthogonalLoop=1;jettySize=auto;html=1;" parent="1" source="TASuhm_qrvJY3Lz54P2R-156" target="TASuhm_qrvJY3Lz54P2R-157" edge="1">
          <mxGeometry relative="1" as="geometry" />
        </mxCell>
        <mxCell id="TASuhm_qrvJY3Lz54P2R-189" value="No" style="edgeLabel;html=1;align=center;verticalAlign=middle;resizable=0;points=[];" parent="TASuhm_qrvJY3Lz54P2R-188" vertex="1" connectable="0">
          <mxGeometry x="-0.1733" y="1" relative="1" as="geometry">
            <mxPoint as="offset" />
          </mxGeometry>
        </mxCell>
        <mxCell id="TASuhm_qrvJY3Lz54P2R-156" value="Has stored interactions?" style="text;html=1;align=center;verticalAlign=middle;whiteSpace=wrap;rounded=0;" parent="1" vertex="1">
          <mxGeometry x="-80" y="965" width="60" height="30" as="geometry" />
        </mxCell>
        <mxCell id="TASuhm_qrvJY3Lz54P2R-200" style="edgeStyle=orthogonalEdgeStyle;rounded=0;orthogonalLoop=1;jettySize=auto;html=1;entryX=1;entryY=0.5;entryDx=0;entryDy=0;" parent="1" source="TASuhm_qrvJY3Lz54P2R-157" target="TASuhm_qrvJY3Lz54P2R-158" edge="1">
          <mxGeometry relative="1" as="geometry" />
        </mxCell>
        <mxCell id="TASuhm_qrvJY3Lz54P2R-157" value="Get interactions&lt;br&gt;&lt;span style=&quot;color: rgba(0, 0, 0, 0); font-family: monospace; font-size: 0px; text-align: start; text-wrap: nowrap;&quot;&gt;%3CmxGraphModel%3E%3Croot%3E%3CmxCell%20id%3D%220%22%2F%3E%3CmxCell%20id%3D%221%22%20parent%3D%220%22%2F%3E%3CmxCell%20id%3D%222%22%20value%3D%22Step%20Advance%26lt%3Bbr%26gt%3B%26lt%3Bspan%20style%3D%26quot%3Bfont-family%3A%20Times%3B%20font-size%3A%20medium%3B%20text-align%3A%20start%3B%20white-space%3A%20pre%3B%26quot%3B%26gt%3B%2Fflow%2Fsession%26lt%3B%2Fspan%26gt%3B%22%20style%3D%22text%3Bhtml%3D1%3Balign%3Dcenter%3BverticalAlign%3Dmiddle%3BwhiteSpace%3Dwrap%3Brounded%3D0%3B%22%20vertex%3D%221%22%20parent%3D%221%22%3E%3CmxGeometry%20x%3D%22280%22%20y%3D%22910%22%20width%3D%2280%22%20height%3D%2240%22%20as%3D%22geometry%22%2F%3E%3C%2FmxCell%3E%3C%2Froot%3E%3C%2FmxGraphModel%3E&lt;/span&gt;&lt;span style=&quot;font-family: Times; font-size: medium; text-align: start; white-space: pre;&quot;&gt;/flow/{session_id}/interactions&lt;/span&gt;" style="text;html=1;align=center;verticalAlign=middle;whiteSpace=wrap;rounded=0;" parent="1" vertex="1">
          <mxGeometry x="-260" y="960" width="80" height="40" as="geometry" />
        </mxCell>
        <mxCell id="TASuhm_qrvJY3Lz54P2R-158" value="Store (memory) interactions" style="text;html=1;align=center;verticalAlign=middle;whiteSpace=wrap;rounded=0;" parent="1" vertex="1">
          <mxGeometry x="-420" y="965" width="60" height="30" as="geometry" />
        </mxCell>
        <mxCell id="TASuhm_qrvJY3Lz54P2R-171" style="edgeStyle=orthogonalEdgeStyle;rounded=0;orthogonalLoop=1;jettySize=auto;html=1;" parent="1" source="TASuhm_qrvJY3Lz54P2R-159" target="TASuhm_qrvJY3Lz54P2R-170" edge="1">
          <mxGeometry relative="1" as="geometry">
            <Array as="points">
              <mxPoint x="-50" y="1495" />
            </Array>
          </mxGeometry>
        </mxCell>
        <mxCell id="TASuhm_qrvJY3Lz54P2R-211" value="Yes" style="edgeLabel;html=1;align=center;verticalAlign=middle;resizable=0;points=[];" parent="TASuhm_qrvJY3Lz54P2R-171" vertex="1" connectable="0">
          <mxGeometry x="-0.7067" y="-1" relative="1" as="geometry">
            <mxPoint as="offset" />
          </mxGeometry>
        </mxCell>
        <mxCell id="TASuhm_qrvJY3Lz54P2R-207" style="edgeStyle=orthogonalEdgeStyle;rounded=0;orthogonalLoop=1;jettySize=auto;html=1;" parent="1" source="TASuhm_qrvJY3Lz54P2R-159" edge="1">
          <mxGeometry relative="1" as="geometry">
            <mxPoint x="-140" y="1275" as="targetPoint" />
          </mxGeometry>
        </mxCell>
        <mxCell id="TASuhm_qrvJY3Lz54P2R-210" value="No" style="edgeLabel;html=1;align=center;verticalAlign=middle;resizable=0;points=[];" parent="TASuhm_qrvJY3Lz54P2R-207" vertex="1" connectable="0">
          <mxGeometry x="-0.2132" relative="1" as="geometry">
            <mxPoint as="offset" />
          </mxGeometry>
        </mxCell>
        <mxCell id="TASuhm_qrvJY3Lz54P2R-159" value="Has stored steps?" style="text;html=1;align=center;verticalAlign=middle;whiteSpace=wrap;rounded=0;" parent="1" vertex="1">
          <mxGeometry x="-82.5" y="1260" width="60" height="30" as="geometry" />
        </mxCell>
        <mxCell id="TASuhm_qrvJY3Lz54P2R-208" style="edgeStyle=orthogonalEdgeStyle;rounded=0;orthogonalLoop=1;jettySize=auto;html=1;entryX=1;entryY=0.5;entryDx=0;entryDy=0;" parent="1" source="TASuhm_qrvJY3Lz54P2R-160" target="TASuhm_qrvJY3Lz54P2R-161" edge="1">
          <mxGeometry relative="1" as="geometry" />
        </mxCell>
        <mxCell id="TASuhm_qrvJY3Lz54P2R-160" value="GetSteps&lt;br&gt;&lt;span style=&quot;font-family: Times; font-size: medium; text-align: start; white-space: pre;&quot;&gt;/flow/{session_id}/steps&lt;/span&gt;" style="text;html=1;align=center;verticalAlign=middle;whiteSpace=wrap;rounded=0;" parent="1" vertex="1">
          <mxGeometry x="-252.5" y="1260" width="60" height="30" as="geometry" />
        </mxCell>
        <mxCell id="TASuhm_qrvJY3Lz54P2R-209" style="edgeStyle=orthogonalEdgeStyle;rounded=0;orthogonalLoop=1;jettySize=auto;html=1;" parent="1" source="TASuhm_qrvJY3Lz54P2R-161" target="TASuhm_qrvJY3Lz54P2R-170" edge="1">
          <mxGeometry relative="1" as="geometry">
            <Array as="points">
              <mxPoint x="-392" y="1380" />
              <mxPoint x="-300" y="1380" />
            </Array>
          </mxGeometry>
        </mxCell>
        <mxCell id="TASuhm_qrvJY3Lz54P2R-161" value="Store (memory) steps" style="text;html=1;align=center;verticalAlign=middle;whiteSpace=wrap;rounded=0;" parent="1" vertex="1">
          <mxGeometry x="-422.5" y="1260" width="60" height="30" as="geometry" />
        </mxCell>
        <mxCell id="TASuhm_qrvJY3Lz54P2R-173" style="edgeStyle=orthogonalEdgeStyle;rounded=0;orthogonalLoop=1;jettySize=auto;html=1;entryX=0.5;entryY=0;entryDx=0;entryDy=0;" parent="1" source="TASuhm_qrvJY3Lz54P2R-162" target="TASuhm_qrvJY3Lz54P2R-166" edge="1">
          <mxGeometry relative="1" as="geometry" />
        </mxCell>
        <mxCell id="TASuhm_qrvJY3Lz54P2R-180" value="Yes" style="edgeLabel;html=1;align=center;verticalAlign=middle;resizable=0;points=[];" parent="TASuhm_qrvJY3Lz54P2R-173" vertex="1" connectable="0">
          <mxGeometry x="-0.1911" y="2" relative="1" as="geometry">
            <mxPoint as="offset" />
          </mxGeometry>
        </mxCell>
        <mxCell id="TASuhm_qrvJY3Lz54P2R-186" style="edgeStyle=orthogonalEdgeStyle;rounded=0;orthogonalLoop=1;jettySize=auto;html=1;" parent="1" source="TASuhm_qrvJY3Lz54P2R-162" edge="1">
          <mxGeometry relative="1" as="geometry">
            <mxPoint x="-160" y="1075" as="targetPoint" />
          </mxGeometry>
        </mxCell>
        <mxCell id="TASuhm_qrvJY3Lz54P2R-187" value="No" style="edgeLabel;html=1;align=center;verticalAlign=middle;resizable=0;points=[];" parent="TASuhm_qrvJY3Lz54P2R-186" vertex="1" connectable="0">
          <mxGeometry x="-0.2013" relative="1" as="geometry">
            <mxPoint as="offset" />
          </mxGeometry>
        </mxCell>
        <mxCell id="TASuhm_qrvJY3Lz54P2R-162" value="Has stored step_num ?" style="text;html=1;align=center;verticalAlign=middle;whiteSpace=wrap;rounded=0;" parent="1" vertex="1">
          <mxGeometry x="-87.5" y="1060" width="70" height="30" as="geometry" />
        </mxCell>
        <mxCell id="TASuhm_qrvJY3Lz54P2R-203" style="edgeStyle=orthogonalEdgeStyle;rounded=0;orthogonalLoop=1;jettySize=auto;html=1;entryX=1;entryY=0.5;entryDx=0;entryDy=0;" parent="1" source="TASuhm_qrvJY3Lz54P2R-163" target="TASuhm_qrvJY3Lz54P2R-164" edge="1">
          <mxGeometry relative="1" as="geometry" />
        </mxCell>
        <mxCell id="TASuhm_qrvJY3Lz54P2R-163" value="Get current session&lt;br&gt;&lt;span style=&quot;font-family: Times; font-size: medium; text-align: start; white-space: pre;&quot;&gt;/flow/{session_id}&lt;/span&gt;" style="text;html=1;align=center;verticalAlign=middle;whiteSpace=wrap;rounded=0;" parent="1" vertex="1">
          <mxGeometry x="-252.5" y="1060" width="60" height="30" as="geometry" />
        </mxCell>
        <mxCell id="TASuhm_qrvJY3Lz54P2R-204" style="edgeStyle=orthogonalEdgeStyle;rounded=0;orthogonalLoop=1;jettySize=auto;html=1;entryX=0.5;entryY=0;entryDx=0;entryDy=0;" parent="1" source="TASuhm_qrvJY3Lz54P2R-164" target="TASuhm_qrvJY3Lz54P2R-166" edge="1">
          <mxGeometry relative="1" as="geometry">
            <Array as="points">
              <mxPoint x="-392" y="1140" />
              <mxPoint x="-52" y="1140" />
            </Array>
          </mxGeometry>
        </mxCell>
        <mxCell id="TASuhm_qrvJY3Lz54P2R-164" value="Store (memory) step_num" style="text;html=1;align=center;verticalAlign=middle;whiteSpace=wrap;rounded=0;" parent="1" vertex="1">
          <mxGeometry x="-422.5" y="1060" width="60" height="30" as="geometry" />
        </mxCell>
        <mxCell id="TASuhm_qrvJY3Lz54P2R-199" style="edgeStyle=orthogonalEdgeStyle;rounded=0;orthogonalLoop=1;jettySize=auto;html=1;entryX=0.5;entryY=0;entryDx=0;entryDy=0;" parent="1" source="TASuhm_qrvJY3Lz54P2R-165" target="TASuhm_qrvJY3Lz54P2R-156" edge="1">
          <mxGeometry relative="1" as="geometry">
            <Array as="points">
              <mxPoint x="-485" y="930" />
              <mxPoint x="-50" y="930" />
            </Array>
          </mxGeometry>
        </mxCell>
        <mxCell id="TASuhm_qrvJY3Lz54P2R-165" value="Store (memory) step_num = 0" style="text;html=1;align=center;verticalAlign=middle;whiteSpace=wrap;rounded=0;" parent="1" vertex="1">
          <mxGeometry x="-530" y="830" width="90" height="30" as="geometry" />
        </mxCell>
        <mxCell id="TASuhm_qrvJY3Lz54P2R-172" style="edgeStyle=orthogonalEdgeStyle;rounded=0;orthogonalLoop=1;jettySize=auto;html=1;" parent="1" source="TASuhm_qrvJY3Lz54P2R-166" edge="1">
          <mxGeometry relative="1" as="geometry">
            <mxPoint x="-52.5" y="1250" as="targetPoint" />
          </mxGeometry>
        </mxCell>
        <mxCell id="TASuhm_qrvJY3Lz54P2R-181" value="No" style="edgeLabel;html=1;align=center;verticalAlign=middle;resizable=0;points=[];" parent="TASuhm_qrvJY3Lz54P2R-172" vertex="1" connectable="0">
          <mxGeometry x="-0.1828" y="1" relative="1" as="geometry">
            <mxPoint as="offset" />
          </mxGeometry>
        </mxCell>
        <mxCell id="TASuhm_qrvJY3Lz54P2R-182" style="edgeStyle=orthogonalEdgeStyle;rounded=0;orthogonalLoop=1;jettySize=auto;html=1;" parent="1" source="TASuhm_qrvJY3Lz54P2R-166" edge="1">
          <mxGeometry relative="1" as="geometry">
            <mxPoint x="-170" y="1180" as="targetPoint" />
          </mxGeometry>
        </mxCell>
        <mxCell id="TASuhm_qrvJY3Lz54P2R-183" value="Yes" style="edgeLabel;html=1;align=center;verticalAlign=middle;resizable=0;points=[];" parent="TASuhm_qrvJY3Lz54P2R-182" vertex="1" connectable="0">
          <mxGeometry x="-0.2196" relative="1" as="geometry">
            <mxPoint as="offset" />
          </mxGeometry>
        </mxCell>
        <mxCell id="TASuhm_qrvJY3Lz54P2R-166" value="step_num == 0?" style="text;html=1;align=center;verticalAlign=middle;whiteSpace=wrap;rounded=0;" parent="1" vertex="1">
          <mxGeometry x="-97.5" y="1165" width="90" height="30" as="geometry" />
        </mxCell>
        <mxCell id="TASuhm_qrvJY3Lz54P2R-184" style="edgeStyle=orthogonalEdgeStyle;rounded=0;orthogonalLoop=1;jettySize=auto;html=1;entryX=1;entryY=0.5;entryDx=0;entryDy=0;" parent="1" source="TASuhm_qrvJY3Lz54P2R-167" target="TASuhm_qrvJY3Lz54P2R-168" edge="1">
          <mxGeometry relative="1" as="geometry" />
        </mxCell>
        <mxCell id="TASuhm_qrvJY3Lz54P2R-167" value="Step Advance&lt;br&gt;&lt;span style=&quot;font-family: Times; font-size: medium; text-align: start; white-space: pre;&quot;&gt;/flow/{session_id}/step/advance&lt;/span&gt;" style="text;html=1;align=center;verticalAlign=middle;whiteSpace=wrap;rounded=0;" parent="1" vertex="1">
          <mxGeometry x="-262.5" y="1160" width="80" height="40" as="geometry" />
        </mxCell>
        <mxCell id="TASuhm_qrvJY3Lz54P2R-206" style="edgeStyle=orthogonalEdgeStyle;rounded=0;orthogonalLoop=1;jettySize=auto;html=1;" parent="1" source="TASuhm_qrvJY3Lz54P2R-168" target="TASuhm_qrvJY3Lz54P2R-159" edge="1">
          <mxGeometry relative="1" as="geometry">
            <Array as="points">
              <mxPoint x="-402" y="1230" />
              <mxPoint x="-52" y="1230" />
            </Array>
          </mxGeometry>
        </mxCell>
        <mxCell id="TASuhm_qrvJY3Lz54P2R-168" value="Store (memory) step_num" style="text;html=1;align=center;verticalAlign=middle;whiteSpace=wrap;rounded=0;" parent="1" vertex="1">
          <mxGeometry x="-432.5" y="1165" width="60" height="30" as="geometry" />
        </mxCell>
        <mxCell id="TASuhm_qrvJY3Lz54P2R-213" style="edgeStyle=orthogonalEdgeStyle;rounded=0;orthogonalLoop=1;jettySize=auto;html=1;" parent="1" source="TASuhm_qrvJY3Lz54P2R-170" edge="1">
          <mxGeometry relative="1" as="geometry">
            <mxPoint x="-300" y="1580" as="targetPoint" />
          </mxGeometry>
        </mxCell>
        <mxCell id="TASuhm_qrvJY3Lz54P2R-170" value="Get social account&lt;br&gt;&lt;span style=&quot;font-family: Times; font-size: medium; text-align: start; white-space: pre;&quot;&gt;/user/socials&lt;/span&gt;" style="text;html=1;align=center;verticalAlign=middle;whiteSpace=wrap;rounded=0;" parent="1" vertex="1">
          <mxGeometry x="-330" y="1480" width="60" height="30" as="geometry" />
        </mxCell>
        <mxCell id="TASuhm_qrvJY3Lz54P2R-174" style="edgeStyle=orthogonalEdgeStyle;rounded=0;orthogonalLoop=1;jettySize=auto;html=1;entryX=0.545;entryY=-0.144;entryDx=0;entryDy=0;entryPerimeter=0;" parent="1" source="TASuhm_qrvJY3Lz54P2R-156" target="TASuhm_qrvJY3Lz54P2R-162" edge="1">
          <mxGeometry relative="1" as="geometry" />
        </mxCell>
        <mxCell id="TASuhm_qrvJY3Lz54P2R-179" value="Yes" style="edgeLabel;html=1;align=center;verticalAlign=middle;resizable=0;points=[];" parent="TASuhm_qrvJY3Lz54P2R-174" vertex="1" connectable="0">
          <mxGeometry x="-0.2176" y="1" relative="1" as="geometry">
            <mxPoint as="offset" />
          </mxGeometry>
        </mxCell>
        <mxCell id="TASuhm_qrvJY3Lz54P2R-202" style="edgeStyle=orthogonalEdgeStyle;rounded=0;orthogonalLoop=1;jettySize=auto;html=1;entryX=0.555;entryY=-0.122;entryDx=0;entryDy=0;entryPerimeter=0;" parent="1" source="TASuhm_qrvJY3Lz54P2R-158" target="TASuhm_qrvJY3Lz54P2R-162" edge="1">
          <mxGeometry relative="1" as="geometry">
            <Array as="points">
              <mxPoint x="-390" y="1030" />
              <mxPoint x="-49" y="1030" />
            </Array>
          </mxGeometry>
        </mxCell>
        <mxCell id="TASuhm_qrvJY3Lz54P2R-220" style="edgeStyle=orthogonalEdgeStyle;rounded=0;orthogonalLoop=1;jettySize=auto;html=1;" parent="1" source="TASuhm_qrvJY3Lz54P2R-212" edge="1">
          <mxGeometry relative="1" as="geometry">
            <mxPoint x="-450" y="1605" as="targetPoint" />
          </mxGeometry>
        </mxCell>
        <mxCell id="TASuhm_qrvJY3Lz54P2R-221" value="No" style="edgeLabel;html=1;align=center;verticalAlign=middle;resizable=0;points=[];" parent="TASuhm_qrvJY3Lz54P2R-220" vertex="1" connectable="0">
          <mxGeometry x="-0.281" relative="1" as="geometry">
            <mxPoint as="offset" />
          </mxGeometry>
        </mxCell>
        <mxCell id="TASuhm_qrvJY3Lz54P2R-212" value="Already registered instagram?" style="text;html=1;align=center;verticalAlign=middle;whiteSpace=wrap;rounded=0;" parent="1" vertex="1">
          <mxGeometry x="-330" y="1590" width="60" height="30" as="geometry" />
        </mxCell>
        <mxCell id="TASuhm_qrvJY3Lz54P2R-218" style="edgeStyle=orthogonalEdgeStyle;rounded=0;orthogonalLoop=1;jettySize=auto;html=1;" parent="1" source="TASuhm_qrvJY3Lz54P2R-215" edge="1">
          <mxGeometry relative="1" as="geometry">
            <mxPoint x="-520" y="1690" as="targetPoint" />
          </mxGeometry>
        </mxCell>
        <mxCell id="TASuhm_qrvJY3Lz54P2R-215" value="Navigate to ConnectSocialMediaPage" style="text;html=1;align=center;verticalAlign=middle;whiteSpace=wrap;rounded=0;" parent="1" vertex="1">
          <mxGeometry x="-550" y="1590" width="60" height="30" as="geometry" />
        </mxCell>
        <mxCell id="TASuhm_qrvJY3Lz54P2R-219" style="edgeStyle=orthogonalEdgeStyle;rounded=0;orthogonalLoop=1;jettySize=auto;html=1;entryX=0.5;entryY=0;entryDx=0;entryDy=0;" parent="1" source="TASuhm_qrvJY3Lz54P2R-216" target="TASuhm_qrvJY3Lz54P2R-217" edge="1">
          <mxGeometry relative="1" as="geometry" />
        </mxCell>
        <mxCell id="TASuhm_qrvJY3Lz54P2R-216" value="User interactions" style="shape=umlActor;verticalLabelPosition=bottom;verticalAlign=top;html=1;outlineConnect=0;" parent="1" vertex="1">
          <mxGeometry x="-535" y="1700" width="30" height="60" as="geometry" />
        </mxCell>
        <mxCell id="TASuhm_qrvJY3Lz54P2R-225" style="edgeStyle=orthogonalEdgeStyle;rounded=0;orthogonalLoop=1;jettySize=auto;html=1;entryX=0.529;entryY=0.002;entryDx=0;entryDy=0;entryPerimeter=0;" parent="1" source="TASuhm_qrvJY3Lz54P2R-217" target="TASuhm_qrvJY3Lz54P2R-253" edge="1">
          <mxGeometry relative="1" as="geometry" />
        </mxCell>
        <mxCell id="TASuhm_qrvJY3Lz54P2R-217" value="Validate social account&lt;div&gt;&lt;span style=&quot;font-family: Times; font-size: medium; text-align: start; white-space: pre;&quot;&gt;/user/social/validate&lt;/span&gt;&lt;/div&gt;" style="text;html=1;align=center;verticalAlign=middle;whiteSpace=wrap;rounded=0;" parent="1" vertex="1">
          <mxGeometry x="-550" y="1850" width="60" height="30" as="geometry" />
        </mxCell>
        <mxCell id="TASuhm_qrvJY3Lz54P2R-227" style="edgeStyle=orthogonalEdgeStyle;rounded=0;orthogonalLoop=1;jettySize=auto;html=1;entryX=0.5;entryY=0;entryDx=0;entryDy=0;" parent="1" source="TASuhm_qrvJY3Lz54P2R-222" target="TASuhm_qrvJY3Lz54P2R-226" edge="1">
          <mxGeometry relative="1" as="geometry" />
        </mxCell>
        <mxCell id="TASuhm_qrvJY3Lz54P2R-222" value="Navigate to OnboardingQuestionary&lt;div&gt;Page&lt;/div&gt;" style="text;html=1;align=center;verticalAlign=middle;whiteSpace=wrap;rounded=0;" parent="1" vertex="1">
          <mxGeometry x="-330" y="1950" width="60" height="30" as="geometry" />
        </mxCell>
        <mxCell id="TASuhm_qrvJY3Lz54P2R-226" value="Get current step&lt;br&gt;&lt;span style=&quot;font-family: Times; font-size: medium; text-align: start; white-space: pre;&quot;&gt;/flow/{session_id}/{step_number}&lt;/span&gt;" style="text;html=1;align=center;verticalAlign=middle;whiteSpace=wrap;rounded=0;" parent="1" vertex="1">
          <mxGeometry x="-330" y="2040" width="60" height="30" as="geometry" />
        </mxCell>
        <mxCell id="TASuhm_qrvJY3Lz54P2R-231" style="edgeStyle=orthogonalEdgeStyle;rounded=0;orthogonalLoop=1;jettySize=auto;html=1;" parent="1" source="TASuhm_qrvJY3Lz54P2R-228" target="TASuhm_qrvJY3Lz54P2R-230" edge="1">
          <mxGeometry relative="1" as="geometry" />
        </mxCell>
        <mxCell id="TASuhm_qrvJY3Lz54P2R-412" style="edgeStyle=orthogonalEdgeStyle;rounded=0;orthogonalLoop=1;jettySize=auto;html=1;entryX=0.5;entryY=0;entryDx=0;entryDy=0;" parent="1" source="TASuhm_qrvJY3Lz54P2R-228" target="TASuhm_qrvJY3Lz54P2R-249" edge="1">
          <mxGeometry relative="1" as="geometry" />
        </mxCell>
        <mxCell id="TASuhm_qrvJY3Lz54P2R-228" value="User interactions" style="shape=umlActor;verticalLabelPosition=bottom;verticalAlign=top;html=1;outlineConnect=0;" parent="1" vertex="1">
          <mxGeometry x="-315" y="2140" width="30" height="60" as="geometry" />
        </mxCell>
        <mxCell id="TASuhm_qrvJY3Lz54P2R-229" style="edgeStyle=orthogonalEdgeStyle;rounded=0;orthogonalLoop=1;jettySize=auto;html=1;entryX=0.5;entryY=0;entryDx=0;entryDy=0;entryPerimeter=0;" parent="1" source="TASuhm_qrvJY3Lz54P2R-226" target="TASuhm_qrvJY3Lz54P2R-228" edge="1">
          <mxGeometry relative="1" as="geometry" />
        </mxCell>
        <mxCell id="TASuhm_qrvJY3Lz54P2R-230" value="Regenerate&lt;br&gt;&lt;span style=&quot;font-family: Times; font-size: medium; text-align: start; white-space: pre;&quot;&gt;/flow/{session_id}/{step_number}/regenerate&lt;/span&gt;" style="text;html=1;align=center;verticalAlign=middle;whiteSpace=wrap;rounded=0;" parent="1" vertex="1">
          <mxGeometry x="-77.5" y="2155" width="60" height="30" as="geometry" />
        </mxCell>
        <mxCell id="TASuhm_qrvJY3Lz54P2R-232" style="edgeStyle=orthogonalEdgeStyle;rounded=0;orthogonalLoop=1;jettySize=auto;html=1;entryX=0.5;entryY=0;entryDx=0;entryDy=0;entryPerimeter=0;" parent="1" source="TASuhm_qrvJY3Lz54P2R-230" target="TASuhm_qrvJY3Lz54P2R-228" edge="1">
          <mxGeometry relative="1" as="geometry">
            <Array as="points">
              <mxPoint x="-47" y="2120" />
              <mxPoint x="-300" y="2120" />
            </Array>
          </mxGeometry>
        </mxCell>
        <mxCell id="TASuhm_qrvJY3Lz54P2R-414" style="edgeStyle=orthogonalEdgeStyle;rounded=0;orthogonalLoop=1;jettySize=auto;html=1;entryX=0.5;entryY=1;entryDx=0;entryDy=0;" parent="1" source="TASuhm_qrvJY3Lz54P2R-233" target="TASuhm_qrvJY3Lz54P2R-251" edge="1">
          <mxGeometry relative="1" as="geometry" />
        </mxCell>
        <mxCell id="TASuhm_qrvJY3Lz54P2R-415" value="No" style="edgeLabel;html=1;align=center;verticalAlign=middle;resizable=0;points=[];" parent="TASuhm_qrvJY3Lz54P2R-414" vertex="1" connectable="0">
          <mxGeometry x="-0.3744" relative="1" as="geometry">
            <mxPoint as="offset" />
          </mxGeometry>
        </mxCell>
        <mxCell id="TASuhm_qrvJY3Lz54P2R-233" value="Is flow finished?" style="text;html=1;align=center;verticalAlign=middle;whiteSpace=wrap;rounded=0;" parent="1" vertex="1">
          <mxGeometry x="-600" y="2275" width="60" height="30" as="geometry" />
        </mxCell>
        <mxCell id="TASuhm_qrvJY3Lz54P2R-235" value="Navigate to OnboardingSummary&lt;span style=&quot;background-color: initial;&quot;&gt;Page&lt;/span&gt;" style="text;html=1;align=center;verticalAlign=middle;whiteSpace=wrap;rounded=0;" parent="1" vertex="1">
          <mxGeometry x="-473" y="2450" width="60" height="30" as="geometry" />
        </mxCell>
        <mxCell id="TASuhm_qrvJY3Lz54P2R-266" style="edgeStyle=orthogonalEdgeStyle;rounded=0;orthogonalLoop=1;jettySize=auto;html=1;entryX=1;entryY=0.5;entryDx=0;entryDy=0;" parent="1" source="TASuhm_qrvJY3Lz54P2R-236" target="TASuhm_qrvJY3Lz54P2R-265" edge="1">
          <mxGeometry relative="1" as="geometry" />
        </mxCell>
        <mxCell id="TASuhm_qrvJY3Lz54P2R-373" style="edgeStyle=orthogonalEdgeStyle;rounded=0;orthogonalLoop=1;jettySize=auto;html=1;" parent="1" source="TASuhm_qrvJY3Lz54P2R-236" target="TASuhm_qrvJY3Lz54P2R-372" edge="1">
          <mxGeometry relative="1" as="geometry" />
        </mxCell>
        <mxCell id="TASuhm_qrvJY3Lz54P2R-236" value="User interactions" style="shape=umlActor;verticalLabelPosition=bottom;verticalAlign=top;html=1;outlineConnect=0;" parent="1" vertex="1">
          <mxGeometry x="-458" y="2580" width="30" height="60" as="geometry" />
        </mxCell>
        <mxCell id="TASuhm_qrvJY3Lz54P2R-282" style="edgeStyle=orthogonalEdgeStyle;rounded=0;orthogonalLoop=1;jettySize=auto;html=1;" parent="1" source="TASuhm_qrvJY3Lz54P2R-237" target="TASuhm_qrvJY3Lz54P2R-238" edge="1">
          <mxGeometry relative="1" as="geometry" />
        </mxCell>
        <mxCell id="TASuhm_qrvJY3Lz54P2R-237" value="Create new session&lt;br&gt;&lt;span style=&quot;font-family: Times; font-size: medium; text-align: start; white-space: pre;&quot;&gt;/flow/session&lt;/span&gt;" style="text;html=1;align=center;verticalAlign=middle;whiteSpace=wrap;rounded=0;" parent="1" vertex="1">
          <mxGeometry x="-920" y="2600" width="80" height="40" as="geometry" />
        </mxCell>
        <mxCell id="TASuhm_qrvJY3Lz54P2R-243" style="edgeStyle=orthogonalEdgeStyle;rounded=0;orthogonalLoop=1;jettySize=auto;html=1;" parent="1" source="TASuhm_qrvJY3Lz54P2R-238" target="TASuhm_qrvJY3Lz54P2R-239" edge="1">
          <mxGeometry relative="1" as="geometry" />
        </mxCell>
        <mxCell id="TASuhm_qrvJY3Lz54P2R-238" value="Get interactions&lt;br&gt;&lt;span style=&quot;color: rgba(0, 0, 0, 0); font-family: monospace; font-size: 0px; text-align: start; text-wrap: nowrap;&quot;&gt;%3CmxGraphModel%3E%3Croot%3E%3CmxCell%20id%3D%220%22%2F%3E%3CmxCell%20id%3D%221%22%20parent%3D%220%22%2F%3E%3CmxCell%20id%3D%222%22%20value%3D%22Step%20Advance%26lt%3Bbr%26gt%3B%26lt%3Bspan%20style%3D%26quot%3Bfont-family%3A%20Times%3B%20font-size%3A%20medium%3B%20text-align%3A%20start%3B%20white-space%3A%20pre%3B%26quot%3B%26gt%3B%2Fflow%2Fsession%26lt%3B%2Fspan%26gt%3B%22%20style%3D%22text%3Bhtml%3D1%3Balign%3Dcenter%3BverticalAlign%3Dmiddle%3BwhiteSpace%3Dwrap%3Brounded%3D0%3B%22%20vertex%3D%221%22%20parent%3D%221%22%3E%3CmxGeometry%20x%3D%22280%22%20y%3D%22910%22%20width%3D%2280%22%20height%3D%2240%22%20as%3D%22geometry%22%2F%3E%3C%2FmxCell%3E%3C%2Froot%3E%3C%2FmxGraphModel%3E&lt;/span&gt;&lt;span style=&quot;font-family: Times; font-size: medium; text-align: start; white-space: pre;&quot;&gt;/flow/{session_id}/interactions&lt;/span&gt;" style="text;html=1;align=center;verticalAlign=middle;whiteSpace=wrap;rounded=0;" parent="1" vertex="1">
          <mxGeometry x="-920" y="2520" width="80" height="40" as="geometry" />
        </mxCell>
        <mxCell id="TASuhm_qrvJY3Lz54P2R-287" style="edgeStyle=orthogonalEdgeStyle;rounded=0;orthogonalLoop=1;jettySize=auto;html=1;" parent="1" source="TASuhm_qrvJY3Lz54P2R-239" target="TASuhm_qrvJY3Lz54P2R-284" edge="1">
          <mxGeometry relative="1" as="geometry" />
        </mxCell>
        <mxCell id="TASuhm_qrvJY3Lz54P2R-239" value="Step Advance&lt;br&gt;&lt;span style=&quot;font-family: Times; font-size: medium; text-align: start; white-space: pre;&quot;&gt;/flow/{session_id}/step/advance&lt;/span&gt;" style="text;html=1;align=center;verticalAlign=middle;whiteSpace=wrap;rounded=0;" parent="1" vertex="1">
          <mxGeometry x="-920" y="2420" width="80" height="40" as="geometry" />
        </mxCell>
        <mxCell id="TASuhm_qrvJY3Lz54P2R-246" style="edgeStyle=orthogonalEdgeStyle;rounded=0;orthogonalLoop=1;jettySize=auto;html=1;entryX=0.5;entryY=0;entryDx=0;entryDy=0;entryPerimeter=0;" parent="1" source="TASuhm_qrvJY3Lz54P2R-235" target="TASuhm_qrvJY3Lz54P2R-236" edge="1">
          <mxGeometry relative="1" as="geometry" />
        </mxCell>
        <mxCell id="TASuhm_qrvJY3Lz54P2R-413" style="edgeStyle=orthogonalEdgeStyle;rounded=0;orthogonalLoop=1;jettySize=auto;html=1;" parent="1" source="TASuhm_qrvJY3Lz54P2R-249" edge="1">
          <mxGeometry relative="1" as="geometry">
            <mxPoint x="-530" y="2285" as="targetPoint" />
          </mxGeometry>
        </mxCell>
        <mxCell id="TASuhm_qrvJY3Lz54P2R-249" value="Set step data&lt;br&gt;&lt;span style=&quot;color: rgba(0, 0, 0, 0); font-family: monospace; font-size: 0px; text-align: start; text-wrap: nowrap;&quot;&gt;%3CmxGraphModel%3E%3Croot%3E%3CmxCell%20id%3D%220%22%2F%3E%3CmxCell%20id%3D%221%22%20parent%3D%220%22%2F%3E%3CmxCell%20id%3D%222%22%20value%3D%22Step%20Advance%26lt%3Bbr%26gt%3B%26lt%3Bspan%20style%3D%26quot%3Bfont-family%3A%20Times%3B%20font-size%3A%20medium%3B%20text-align%3A%20start%3B%20white-space%3A%20pre%3B%26quot%3B%26gt%3B%2Fflow%2Fsession%26lt%3B%2Fspan%26gt%3B%22%20style%3D%22text%3Bhtml%3D1%3Balign%3Dcenter%3BverticalAlign%3Dmiddle%3BwhiteSpace%3Dwrap%3Brounded%3D0%3B%22%20vertex%3D%221%22%20parent%3D%221%22%3E%3CmxGeometry%20x%3D%22-262.5%22%20y%3D%221160%22%20width%3D%2280%22%20height%3D%2240%22%20as%3D%22geometry%22%2F%3E%3C%2FmxCell%3E%3C%2Froot%3E%3C%2FmxGraphModel%3E&lt;/span&gt;&lt;span style=&quot;font-family: Times; font-size: medium; text-align: start; white-space: pre;&quot;&gt;/flow/{session_id}/{step_number}&lt;/span&gt;" style="text;html=1;align=center;verticalAlign=middle;whiteSpace=wrap;rounded=0;" parent="1" vertex="1">
          <mxGeometry x="-330" y="2270" width="60" height="30" as="geometry" />
        </mxCell>
        <mxCell id="TASuhm_qrvJY3Lz54P2R-251" value="Step Advance&lt;br&gt;&lt;span style=&quot;font-family: Times; font-size: medium; text-align: start; white-space: pre;&quot;&gt;/flow/{session_id}/step/advance&lt;/span&gt;" style="text;html=1;align=center;verticalAlign=middle;whiteSpace=wrap;rounded=0;" parent="1" vertex="1">
          <mxGeometry x="-610" y="2170" width="80" height="40" as="geometry" />
        </mxCell>
        <mxCell id="TASuhm_qrvJY3Lz54P2R-254" value="" style="edgeStyle=orthogonalEdgeStyle;rounded=0;orthogonalLoop=1;jettySize=auto;html=1;entryX=0.5;entryY=-0.122;entryDx=0;entryDy=0;entryPerimeter=0;" parent="1" source="TASuhm_qrvJY3Lz54P2R-212" target="TASuhm_qrvJY3Lz54P2R-253" edge="1">
          <mxGeometry relative="1" as="geometry">
            <mxPoint x="-300" y="1620" as="sourcePoint" />
            <mxPoint x="-300" y="1946" as="targetPoint" />
          </mxGeometry>
        </mxCell>
        <mxCell id="TASuhm_qrvJY3Lz54P2R-255" value="Yes" style="edgeLabel;html=1;align=center;verticalAlign=middle;resizable=0;points=[];" parent="TASuhm_qrvJY3Lz54P2R-254" vertex="1" connectable="0">
          <mxGeometry x="-0.1726" y="1" relative="1" as="geometry">
            <mxPoint as="offset" />
          </mxGeometry>
        </mxCell>
        <mxCell id="TASuhm_qrvJY3Lz54P2R-257" style="edgeStyle=orthogonalEdgeStyle;rounded=0;orthogonalLoop=1;jettySize=auto;html=1;" parent="1" source="TASuhm_qrvJY3Lz54P2R-253" target="TASuhm_qrvJY3Lz54P2R-222" edge="1">
          <mxGeometry relative="1" as="geometry" />
        </mxCell>
        <mxCell id="TASuhm_qrvJY3Lz54P2R-253" value="Start Flow 1" style="text;html=1;align=center;verticalAlign=middle;whiteSpace=wrap;rounded=0;" parent="1" vertex="1">
          <mxGeometry x="-330" y="1885" width="60" height="30" as="geometry" />
        </mxCell>
        <mxCell id="TASuhm_qrvJY3Lz54P2R-262" style="edgeStyle=orthogonalEdgeStyle;rounded=0;orthogonalLoop=1;jettySize=auto;html=1;entryX=0.5;entryY=0;entryDx=0;entryDy=0;" parent="1" source="TASuhm_qrvJY3Lz54P2R-259" target="TASuhm_qrvJY3Lz54P2R-235" edge="1">
          <mxGeometry relative="1" as="geometry" />
        </mxCell>
        <mxCell id="TASuhm_qrvJY3Lz54P2R-263" value="No" style="edgeLabel;html=1;align=center;verticalAlign=middle;resizable=0;points=[];" parent="TASuhm_qrvJY3Lz54P2R-262" vertex="1" connectable="0">
          <mxGeometry x="-0.1236" y="-1" relative="1" as="geometry">
            <mxPoint as="offset" />
          </mxGeometry>
        </mxCell>
        <mxCell id="TASuhm_qrvJY3Lz54P2R-295" style="edgeStyle=orthogonalEdgeStyle;rounded=0;orthogonalLoop=1;jettySize=auto;html=1;entryX=0;entryY=0.5;entryDx=0;entryDy=0;exitX=1;exitY=0.5;exitDx=0;exitDy=0;" parent="1" source="TASuhm_qrvJY3Lz54P2R-405" target="TASuhm_qrvJY3Lz54P2R-15" edge="1">
          <mxGeometry relative="1" as="geometry">
            <Array as="points">
              <mxPoint y="2405" />
              <mxPoint x="120" y="2405" />
              <mxPoint x="120" y="1980" />
              <mxPoint x="-180" y="1980" />
              <mxPoint x="-180" y="1590" />
              <mxPoint x="40" y="1590" />
              <mxPoint x="40" y="625" />
            </Array>
          </mxGeometry>
        </mxCell>
        <mxCell id="TASuhm_qrvJY3Lz54P2R-418" style="edgeStyle=orthogonalEdgeStyle;rounded=0;orthogonalLoop=1;jettySize=auto;html=1;" parent="1" source="TASuhm_qrvJY3Lz54P2R-259" target="TASuhm_qrvJY3Lz54P2R-405" edge="1">
          <mxGeometry relative="1" as="geometry" />
        </mxCell>
        <mxCell id="TASuhm_qrvJY3Lz54P2R-419" value="Yes" style="edgeLabel;html=1;align=center;verticalAlign=middle;resizable=0;points=[];" parent="TASuhm_qrvJY3Lz54P2R-418" vertex="1" connectable="0">
          <mxGeometry x="-0.3124" y="-1" relative="1" as="geometry">
            <mxPoint as="offset" />
          </mxGeometry>
        </mxCell>
        <mxCell id="TASuhm_qrvJY3Lz54P2R-259" value="Flow id == 2?" style="text;html=1;align=center;verticalAlign=middle;whiteSpace=wrap;rounded=0;" parent="1" vertex="1">
          <mxGeometry x="-350" y="2390" width="100" height="30" as="geometry" />
        </mxCell>
        <mxCell id="TASuhm_qrvJY3Lz54P2R-421" style="edgeStyle=orthogonalEdgeStyle;rounded=0;orthogonalLoop=1;jettySize=auto;html=1;" parent="1" source="TASuhm_qrvJY3Lz54P2R-265" target="TASuhm_qrvJY3Lz54P2R-420" edge="1">
          <mxGeometry relative="1" as="geometry" />
        </mxCell>
        <mxCell id="TASuhm_qrvJY3Lz54P2R-265" value="Continue clicked" style="text;html=1;align=center;verticalAlign=middle;whiteSpace=wrap;rounded=0;" parent="1" vertex="1">
          <mxGeometry x="-550" y="2605" width="60" height="30" as="geometry" />
        </mxCell>
        <mxCell id="TASuhm_qrvJY3Lz54P2R-271" style="edgeStyle=orthogonalEdgeStyle;rounded=0;orthogonalLoop=1;jettySize=auto;html=1;" parent="1" source="TASuhm_qrvJY3Lz54P2R-269" edge="1">
          <mxGeometry relative="1" as="geometry">
            <mxPoint x="-340" y="2050" as="targetPoint" />
            <Array as="points">
              <mxPoint x="-380" y="2050" />
              <mxPoint x="-380" y="2050" />
            </Array>
          </mxGeometry>
        </mxCell>
        <mxCell id="TASuhm_qrvJY3Lz54P2R-275" value="Yes" style="edgeLabel;html=1;align=center;verticalAlign=middle;resizable=0;points=[];" parent="TASuhm_qrvJY3Lz54P2R-271" vertex="1" connectable="0">
          <mxGeometry x="-0.2678" y="1" relative="1" as="geometry">
            <mxPoint as="offset" />
          </mxGeometry>
        </mxCell>
        <mxCell id="TASuhm_qrvJY3Lz54P2R-269" value="Is success response?" style="text;html=1;align=center;verticalAlign=middle;whiteSpace=wrap;rounded=0;" parent="1" vertex="1">
          <mxGeometry x="-620" y="2040" width="70" height="40" as="geometry" />
        </mxCell>
        <mxCell id="TASuhm_qrvJY3Lz54P2R-270" style="edgeStyle=orthogonalEdgeStyle;rounded=0;orthogonalLoop=1;jettySize=auto;html=1;entryX=0.599;entryY=1.09;entryDx=0;entryDy=0;entryPerimeter=0;" parent="1" source="TASuhm_qrvJY3Lz54P2R-251" target="TASuhm_qrvJY3Lz54P2R-269" edge="1">
          <mxGeometry relative="1" as="geometry" />
        </mxCell>
        <mxCell id="TASuhm_qrvJY3Lz54P2R-277" value="" style="edgeStyle=orthogonalEdgeStyle;rounded=0;orthogonalLoop=1;jettySize=auto;html=1;" parent="1" source="TASuhm_qrvJY3Lz54P2R-269" target="TASuhm_qrvJY3Lz54P2R-276" edge="1">
          <mxGeometry relative="1" as="geometry">
            <mxPoint x="-550" y="2080" as="sourcePoint" />
            <mxPoint x="-300" y="2170" as="targetPoint" />
            <Array as="points">
              <mxPoint x="-428" y="2080" />
            </Array>
          </mxGeometry>
        </mxCell>
        <mxCell id="TASuhm_qrvJY3Lz54P2R-278" value="No" style="edgeLabel;html=1;align=center;verticalAlign=middle;resizable=0;points=[];" parent="TASuhm_qrvJY3Lz54P2R-277" vertex="1" connectable="0">
          <mxGeometry x="-0.0747" y="1" relative="1" as="geometry">
            <mxPoint as="offset" />
          </mxGeometry>
        </mxCell>
        <mxCell id="TASuhm_qrvJY3Lz54P2R-280" style="edgeStyle=orthogonalEdgeStyle;rounded=0;orthogonalLoop=1;jettySize=auto;html=1;" parent="1" source="TASuhm_qrvJY3Lz54P2R-276" target="TASuhm_qrvJY3Lz54P2R-228" edge="1">
          <mxGeometry relative="1" as="geometry" />
        </mxCell>
        <mxCell id="TASuhm_qrvJY3Lz54P2R-276" value="Back previous quesiton" style="text;html=1;align=center;verticalAlign=middle;whiteSpace=wrap;rounded=0;" parent="1" vertex="1">
          <mxGeometry x="-458" y="2120" width="60" height="30" as="geometry" />
        </mxCell>
        <mxCell id="TASuhm_qrvJY3Lz54P2R-285" style="edgeStyle=orthogonalEdgeStyle;rounded=0;orthogonalLoop=1;jettySize=auto;html=1;" parent="1" source="TASuhm_qrvJY3Lz54P2R-284" edge="1">
          <mxGeometry relative="1" as="geometry">
            <mxPoint x="-370" y="1960" as="targetPoint" />
            <Array as="points">
              <mxPoint x="-880" y="1965" />
            </Array>
          </mxGeometry>
        </mxCell>
        <mxCell id="TASuhm_qrvJY3Lz54P2R-286" value="Yes" style="edgeLabel;html=1;align=center;verticalAlign=middle;resizable=0;points=[];" parent="TASuhm_qrvJY3Lz54P2R-285" vertex="1" connectable="0">
          <mxGeometry x="0.129" y="-1" relative="1" as="geometry">
            <mxPoint as="offset" />
          </mxGeometry>
        </mxCell>
        <mxCell id="TASuhm_qrvJY3Lz54P2R-293" style="edgeStyle=orthogonalEdgeStyle;rounded=0;orthogonalLoop=1;jettySize=auto;html=1;" parent="1" source="TASuhm_qrvJY3Lz54P2R-284" edge="1">
          <mxGeometry relative="1" as="geometry">
            <mxPoint x="-660" y="2390" as="targetPoint" />
          </mxGeometry>
        </mxCell>
        <mxCell id="TASuhm_qrvJY3Lz54P2R-284" value="Is success response?" style="text;html=1;align=center;verticalAlign=middle;whiteSpace=wrap;rounded=0;" parent="1" vertex="1">
          <mxGeometry x="-915" y="2330" width="70" height="40" as="geometry" />
        </mxCell>
        <mxCell id="TASuhm_qrvJY3Lz54P2R-290" value="Back previous screen" style="text;html=1;align=center;verticalAlign=middle;whiteSpace=wrap;rounded=0;" parent="1" vertex="1">
          <mxGeometry x="-690" y="2400" width="60" height="30" as="geometry" />
        </mxCell>
        <mxCell id="TASuhm_qrvJY3Lz54P2R-291" style="edgeStyle=orthogonalEdgeStyle;rounded=0;orthogonalLoop=1;jettySize=auto;html=1;entryX=0.5;entryY=0;entryDx=0;entryDy=0;entryPerimeter=0;" parent="1" source="TASuhm_qrvJY3Lz54P2R-290" target="TASuhm_qrvJY3Lz54P2R-236" edge="1">
          <mxGeometry relative="1" as="geometry">
            <Array as="points">
              <mxPoint x="-660" y="2550" />
              <mxPoint x="-443" y="2550" />
            </Array>
          </mxGeometry>
        </mxCell>
        <mxCell id="TASuhm_qrvJY3Lz54P2R-300" style="edgeStyle=orthogonalEdgeStyle;rounded=0;orthogonalLoop=1;jettySize=auto;html=1;entryX=0;entryY=0.5;entryDx=0;entryDy=0;" parent="1" source="TASuhm_qrvJY3Lz54P2R-298" target="TASuhm_qrvJY3Lz54P2R-299" edge="1">
          <mxGeometry relative="1" as="geometry" />
        </mxCell>
        <mxCell id="TASuhm_qrvJY3Lz54P2R-298" value="Any API rest" style="text;html=1;align=center;verticalAlign=middle;whiteSpace=wrap;rounded=0;" parent="1" vertex="1">
          <mxGeometry x="-730" y="-470" width="60" height="30" as="geometry" />
        </mxCell>
        <mxCell id="TASuhm_qrvJY3Lz54P2R-316" style="edgeStyle=orthogonalEdgeStyle;rounded=0;orthogonalLoop=1;jettySize=auto;html=1;" parent="1" source="TASuhm_qrvJY3Lz54P2R-299" target="TASuhm_qrvJY3Lz54P2R-315" edge="1">
          <mxGeometry relative="1" as="geometry" />
        </mxCell>
        <mxCell id="TASuhm_qrvJY3Lz54P2R-299" value="Success status code?" style="text;html=1;align=center;verticalAlign=middle;whiteSpace=wrap;rounded=0;" parent="1" vertex="1">
          <mxGeometry x="-540" y="-470" width="60" height="30" as="geometry" />
        </mxCell>
        <mxCell id="TASuhm_qrvJY3Lz54P2R-317" style="edgeStyle=orthogonalEdgeStyle;rounded=0;orthogonalLoop=1;jettySize=auto;html=1;" parent="1" source="TASuhm_qrvJY3Lz54P2R-301" edge="1">
          <mxGeometry relative="1" as="geometry">
            <mxPoint x="-360" y="-220" as="targetPoint" />
          </mxGeometry>
        </mxCell>
        <mxCell id="TASuhm_qrvJY3Lz54P2R-318" value="No" style="edgeLabel;html=1;align=center;verticalAlign=middle;resizable=0;points=[];" parent="TASuhm_qrvJY3Lz54P2R-317" vertex="1" connectable="0">
          <mxGeometry x="-0.2939" y="-3" relative="1" as="geometry">
            <mxPoint as="offset" />
          </mxGeometry>
        </mxCell>
        <mxCell id="TASuhm_qrvJY3Lz54P2R-326" style="edgeStyle=orthogonalEdgeStyle;rounded=0;orthogonalLoop=1;jettySize=auto;html=1;" parent="1" source="TASuhm_qrvJY3Lz54P2R-301" target="TASuhm_qrvJY3Lz54P2R-321" edge="1">
          <mxGeometry relative="1" as="geometry" />
        </mxCell>
        <mxCell id="TASuhm_qrvJY3Lz54P2R-327" value="Yes" style="edgeLabel;html=1;align=center;verticalAlign=middle;resizable=0;points=[];" parent="TASuhm_qrvJY3Lz54P2R-326" vertex="1" connectable="0">
          <mxGeometry x="-0.0351" y="2" relative="1" as="geometry">
            <mxPoint as="offset" />
          </mxGeometry>
        </mxCell>
        <mxCell id="TASuhm_qrvJY3Lz54P2R-301" value="401 status code?" style="text;html=1;align=center;verticalAlign=middle;whiteSpace=wrap;rounded=0;" parent="1" vertex="1">
          <mxGeometry x="-535.5" y="-130" width="60" height="30" as="geometry" />
        </mxCell>
        <mxCell id="TASuhm_qrvJY3Lz54P2R-308" style="edgeStyle=orthogonalEdgeStyle;rounded=0;orthogonalLoop=1;jettySize=auto;html=1;entryX=0.5;entryY=0;entryDx=0;entryDy=0;exitX=0.5;exitY=1;exitDx=0;exitDy=0;" parent="1" source="TASuhm_qrvJY3Lz54P2R-299" target="TASuhm_qrvJY3Lz54P2R-301" edge="1">
          <mxGeometry relative="1" as="geometry">
            <mxPoint x="-505.5" y="-200" as="sourcePoint" />
          </mxGeometry>
        </mxCell>
        <mxCell id="TASuhm_qrvJY3Lz54P2R-309" value="No" style="edgeLabel;html=1;align=center;verticalAlign=middle;resizable=0;points=[];" parent="TASuhm_qrvJY3Lz54P2R-308" vertex="1" connectable="0">
          <mxGeometry x="-0.1273" relative="1" as="geometry">
            <mxPoint as="offset" />
          </mxGeometry>
        </mxCell>
        <mxCell id="TASuhm_qrvJY3Lz54P2R-310" value="throw error response" style="text;html=1;align=center;verticalAlign=middle;whiteSpace=wrap;rounded=0;" parent="1" vertex="1">
          <mxGeometry x="-390" y="-260" width="60" height="30" as="geometry" />
        </mxCell>
        <mxCell id="TASuhm_qrvJY3Lz54P2R-315" value="success response" style="text;html=1;align=center;verticalAlign=middle;whiteSpace=wrap;rounded=0;" parent="1" vertex="1">
          <mxGeometry x="-390" y="-470" width="60" height="30" as="geometry" />
        </mxCell>
        <mxCell id="TASuhm_qrvJY3Lz54P2R-324" style="edgeStyle=orthogonalEdgeStyle;rounded=0;orthogonalLoop=1;jettySize=auto;html=1;" parent="1" source="TASuhm_qrvJY3Lz54P2R-321" edge="1">
          <mxGeometry relative="1" as="geometry">
            <mxPoint x="-660" y="-40" as="targetPoint" />
          </mxGeometry>
        </mxCell>
        <mxCell id="TASuhm_qrvJY3Lz54P2R-325" value="No" style="edgeLabel;html=1;align=center;verticalAlign=middle;resizable=0;points=[];" parent="TASuhm_qrvJY3Lz54P2R-324" vertex="1" connectable="0">
          <mxGeometry x="0.0089" relative="1" as="geometry">
            <mxPoint y="-1" as="offset" />
          </mxGeometry>
        </mxCell>
        <mxCell id="TASuhm_qrvJY3Lz54P2R-321" value="Refresh auth success?" style="text;html=1;align=center;verticalAlign=middle;whiteSpace=wrap;rounded=0;" parent="1" vertex="1">
          <mxGeometry x="-690" y="-130" width="60" height="30" as="geometry" />
        </mxCell>
        <mxCell id="TASuhm_qrvJY3Lz54P2R-323" style="edgeStyle=orthogonalEdgeStyle;rounded=0;orthogonalLoop=1;jettySize=auto;html=1;" parent="1" source="TASuhm_qrvJY3Lz54P2R-322" edge="1">
          <mxGeometry relative="1" as="geometry">
            <mxPoint x="-360" y="-220" as="targetPoint" />
          </mxGeometry>
        </mxCell>
        <mxCell id="TASuhm_qrvJY3Lz54P2R-322" value="Navigate to LoginPage" style="text;html=1;align=center;verticalAlign=middle;whiteSpace=wrap;rounded=0;" parent="1" vertex="1">
          <mxGeometry x="-690" y="-30" width="60" height="30" as="geometry" />
        </mxCell>
        <mxCell id="TASuhm_qrvJY3Lz54P2R-329" style="edgeStyle=orthogonalEdgeStyle;rounded=0;orthogonalLoop=1;jettySize=auto;html=1;entryX=0;entryY=0.5;entryDx=0;entryDy=0;exitX=0;exitY=0.5;exitDx=0;exitDy=0;" parent="1" source="TASuhm_qrvJY3Lz54P2R-321" target="TASuhm_qrvJY3Lz54P2R-298" edge="1">
          <mxGeometry relative="1" as="geometry">
            <mxPoint x="-800" y="-115" as="sourcePoint" />
            <Array as="points">
              <mxPoint x="-820" y="-115" />
              <mxPoint x="-820" y="-455" />
            </Array>
          </mxGeometry>
        </mxCell>
        <mxCell id="TASuhm_qrvJY3Lz54P2R-333" value="Yes" style="edgeLabel;html=1;align=center;verticalAlign=middle;resizable=0;points=[];" parent="TASuhm_qrvJY3Lz54P2R-329" vertex="1" connectable="0">
          <mxGeometry x="-0.7655" y="1" relative="1" as="geometry">
            <mxPoint as="offset" />
          </mxGeometry>
        </mxCell>
        <mxCell id="TASuhm_qrvJY3Lz54P2R-332" value="Default resilience policy" style="text;html=1;align=center;verticalAlign=middle;whiteSpace=wrap;rounded=0;fillColor=#dae8fc;strokeColor=#6c8ebf;" parent="1" vertex="1">
          <mxGeometry x="-695" y="-530" width="220" height="30" as="geometry" />
        </mxCell>
        <mxCell id="TASuhm_qrvJY3Lz54P2R-334" value="" style="whiteSpace=wrap;html=1;aspect=fixed;" parent="1" vertex="1">
          <mxGeometry x="720" y="-525" width="560" height="560" as="geometry" />
        </mxCell>
        <mxCell id="TASuhm_qrvJY3Lz54P2R-335" style="edgeStyle=orthogonalEdgeStyle;rounded=0;orthogonalLoop=1;jettySize=auto;html=1;entryX=0;entryY=0.5;entryDx=0;entryDy=0;" parent="1" source="TASuhm_qrvJY3Lz54P2R-336" target="TASuhm_qrvJY3Lz54P2R-338" edge="1">
          <mxGeometry relative="1" as="geometry" />
        </mxCell>
        <mxCell id="TASuhm_qrvJY3Lz54P2R-336" value="Any API rest" style="text;html=1;align=center;verticalAlign=middle;whiteSpace=wrap;rounded=0;" parent="1" vertex="1">
          <mxGeometry x="870" y="-465" width="60" height="30" as="geometry" />
        </mxCell>
        <mxCell id="TASuhm_qrvJY3Lz54P2R-337" style="edgeStyle=orthogonalEdgeStyle;rounded=0;orthogonalLoop=1;jettySize=auto;html=1;" parent="1" source="TASuhm_qrvJY3Lz54P2R-338" target="TASuhm_qrvJY3Lz54P2R-347" edge="1">
          <mxGeometry relative="1" as="geometry" />
        </mxCell>
        <mxCell id="TASuhm_qrvJY3Lz54P2R-338" value="Success status code?" style="text;html=1;align=center;verticalAlign=middle;whiteSpace=wrap;rounded=0;" parent="1" vertex="1">
          <mxGeometry x="1045" y="-465" width="60" height="30" as="geometry" />
        </mxCell>
        <mxCell id="TASuhm_qrvJY3Lz54P2R-339" style="edgeStyle=orthogonalEdgeStyle;rounded=0;orthogonalLoop=1;jettySize=auto;html=1;" parent="1" source="TASuhm_qrvJY3Lz54P2R-343" edge="1">
          <mxGeometry relative="1" as="geometry">
            <mxPoint x="1225" y="-215" as="targetPoint" />
          </mxGeometry>
        </mxCell>
        <mxCell id="TASuhm_qrvJY3Lz54P2R-340" value="Yes" style="edgeLabel;html=1;align=center;verticalAlign=middle;resizable=0;points=[];" parent="TASuhm_qrvJY3Lz54P2R-339" vertex="1" connectable="0">
          <mxGeometry x="-0.2939" y="-3" relative="1" as="geometry">
            <mxPoint as="offset" />
          </mxGeometry>
        </mxCell>
        <mxCell id="TASuhm_qrvJY3Lz54P2R-341" style="edgeStyle=orthogonalEdgeStyle;rounded=0;orthogonalLoop=1;jettySize=auto;html=1;" parent="1" source="TASuhm_qrvJY3Lz54P2R-343" target="TASuhm_qrvJY3Lz54P2R-350" edge="1">
          <mxGeometry relative="1" as="geometry" />
        </mxCell>
        <mxCell id="TASuhm_qrvJY3Lz54P2R-342" value="No" style="edgeLabel;html=1;align=center;verticalAlign=middle;resizable=0;points=[];" parent="TASuhm_qrvJY3Lz54P2R-341" vertex="1" connectable="0">
          <mxGeometry x="-0.0351" y="2" relative="1" as="geometry">
            <mxPoint as="offset" />
          </mxGeometry>
        </mxCell>
        <mxCell id="TASuhm_qrvJY3Lz54P2R-343" value="Any 500 StatusCode?" style="text;html=1;align=center;verticalAlign=middle;whiteSpace=wrap;rounded=0;" parent="1" vertex="1">
          <mxGeometry x="1049.5" y="-125" width="60" height="30" as="geometry" />
        </mxCell>
        <mxCell id="TASuhm_qrvJY3Lz54P2R-346" value="throw error response" style="text;html=1;align=center;verticalAlign=middle;whiteSpace=wrap;rounded=0;" parent="1" vertex="1">
          <mxGeometry x="1195" y="-255" width="60" height="30" as="geometry" />
        </mxCell>
        <mxCell id="TASuhm_qrvJY3Lz54P2R-347" value="success response" style="text;html=1;align=center;verticalAlign=middle;whiteSpace=wrap;rounded=0;" parent="1" vertex="1">
          <mxGeometry x="1195" y="-465" width="60" height="30" as="geometry" />
        </mxCell>
        <mxCell id="TASuhm_qrvJY3Lz54P2R-350" value="Retries + 1" style="text;html=1;align=center;verticalAlign=middle;whiteSpace=wrap;rounded=0;" parent="1" vertex="1">
          <mxGeometry x="890" y="-125" width="65" height="30" as="geometry" />
        </mxCell>
        <mxCell id="TASuhm_qrvJY3Lz54P2R-353" style="edgeStyle=orthogonalEdgeStyle;rounded=0;orthogonalLoop=1;jettySize=auto;html=1;entryX=0;entryY=0.5;entryDx=0;entryDy=0;exitX=0;exitY=0.5;exitDx=0;exitDy=0;" parent="1" source="TASuhm_qrvJY3Lz54P2R-350" target="TASuhm_qrvJY3Lz54P2R-336" edge="1">
          <mxGeometry relative="1" as="geometry">
            <mxPoint x="785" y="-110" as="sourcePoint" />
            <Array as="points">
              <mxPoint x="765" y="-110" />
              <mxPoint x="765" y="-450" />
            </Array>
          </mxGeometry>
        </mxCell>
        <mxCell id="TASuhm_qrvJY3Lz54P2R-355" value="Onboarding/Ideation flow resilience policy" style="text;html=1;align=center;verticalAlign=middle;whiteSpace=wrap;rounded=0;fillColor=#dae8fc;strokeColor=#6c8ebf;" parent="1" vertex="1">
          <mxGeometry x="890" y="-525" width="240" height="30" as="geometry" />
        </mxCell>
        <mxCell id="TASuhm_qrvJY3Lz54P2R-358" style="edgeStyle=orthogonalEdgeStyle;rounded=0;orthogonalLoop=1;jettySize=auto;html=1;entryX=0.5;entryY=0;entryDx=0;entryDy=0;" parent="1" source="TASuhm_qrvJY3Lz54P2R-356" target="TASuhm_qrvJY3Lz54P2R-346" edge="1">
          <mxGeometry relative="1" as="geometry" />
        </mxCell>
        <mxCell id="TASuhm_qrvJY3Lz54P2R-366" value="Yes" style="edgeLabel;html=1;align=center;verticalAlign=middle;resizable=0;points=[];" parent="TASuhm_qrvJY3Lz54P2R-358" vertex="1" connectable="0">
          <mxGeometry x="-0.1607" relative="1" as="geometry">
            <mxPoint as="offset" />
          </mxGeometry>
        </mxCell>
        <mxCell id="TASuhm_qrvJY3Lz54P2R-356" value="Retries &amp;gt;= 3" style="text;html=1;align=center;verticalAlign=middle;whiteSpace=wrap;rounded=0;" parent="1" vertex="1">
          <mxGeometry x="1040" y="-360" width="69.5" height="30" as="geometry" />
        </mxCell>
        <mxCell id="TASuhm_qrvJY3Lz54P2R-359" style="edgeStyle=orthogonalEdgeStyle;rounded=0;orthogonalLoop=1;jettySize=auto;html=1;entryX=0.413;entryY=-0.058;entryDx=0;entryDy=0;entryPerimeter=0;" parent="1" source="TASuhm_qrvJY3Lz54P2R-338" target="TASuhm_qrvJY3Lz54P2R-356" edge="1">
          <mxGeometry relative="1" as="geometry" />
        </mxCell>
        <mxCell id="TASuhm_qrvJY3Lz54P2R-360" value="No" style="edgeLabel;html=1;align=center;verticalAlign=middle;resizable=0;points=[];" parent="TASuhm_qrvJY3Lz54P2R-359" vertex="1" connectable="0">
          <mxGeometry x="0.0141" y="1" relative="1" as="geometry">
            <mxPoint as="offset" />
          </mxGeometry>
        </mxCell>
        <mxCell id="TASuhm_qrvJY3Lz54P2R-367" style="edgeStyle=orthogonalEdgeStyle;rounded=0;orthogonalLoop=1;jettySize=auto;html=1;entryX=-0.047;entryY=0.516;entryDx=0;entryDy=0;entryPerimeter=0;" parent="1" source="TASuhm_qrvJY3Lz54P2R-361" target="TASuhm_qrvJY3Lz54P2R-338" edge="1">
          <mxGeometry relative="1" as="geometry">
            <Array as="points">
              <mxPoint x="980" y="-240" />
              <mxPoint x="980" y="-449" />
            </Array>
          </mxGeometry>
        </mxCell>
        <mxCell id="TASuhm_qrvJY3Lz54P2R-368" value="Yes" style="edgeLabel;html=1;align=center;verticalAlign=middle;resizable=0;points=[];" parent="TASuhm_qrvJY3Lz54P2R-367" vertex="1" connectable="0">
          <mxGeometry x="-0.5767" relative="1" as="geometry">
            <mxPoint as="offset" />
          </mxGeometry>
        </mxCell>
        <mxCell id="TASuhm_qrvJY3Lz54P2R-361" value="Default resiliency policy solved?" style="text;html=1;align=center;verticalAlign=middle;whiteSpace=wrap;rounded=0;" parent="1" vertex="1">
          <mxGeometry x="1025" y="-255" width="95" height="30" as="geometry" />
        </mxCell>
        <mxCell id="TASuhm_qrvJY3Lz54P2R-362" style="edgeStyle=orthogonalEdgeStyle;rounded=0;orthogonalLoop=1;jettySize=auto;html=1;entryX=0.57;entryY=-0.058;entryDx=0;entryDy=0;entryPerimeter=0;" parent="1" source="TASuhm_qrvJY3Lz54P2R-356" target="TASuhm_qrvJY3Lz54P2R-361" edge="1">
          <mxGeometry relative="1" as="geometry" />
        </mxCell>
        <mxCell id="TASuhm_qrvJY3Lz54P2R-365" value="No" style="edgeLabel;html=1;align=center;verticalAlign=middle;resizable=0;points=[];" parent="TASuhm_qrvJY3Lz54P2R-362" vertex="1" connectable="0">
          <mxGeometry x="-0.1443" y="1" relative="1" as="geometry">
            <mxPoint as="offset" />
          </mxGeometry>
        </mxCell>
        <mxCell id="TASuhm_qrvJY3Lz54P2R-369" style="edgeStyle=orthogonalEdgeStyle;rounded=0;orthogonalLoop=1;jettySize=auto;html=1;exitX=0.5;exitY=1;exitDx=0;exitDy=0;entryX=0.387;entryY=0.167;entryDx=0;entryDy=0;entryPerimeter=0;" parent="1" source="TASuhm_qrvJY3Lz54P2R-361" target="TASuhm_qrvJY3Lz54P2R-343" edge="1">
          <mxGeometry relative="1" as="geometry" />
        </mxCell>
        <mxCell id="TASuhm_qrvJY3Lz54P2R-370" value="No" style="edgeLabel;html=1;align=center;verticalAlign=middle;resizable=0;points=[];" parent="TASuhm_qrvJY3Lz54P2R-369" vertex="1" connectable="0">
          <mxGeometry x="-0.2064" relative="1" as="geometry">
            <mxPoint y="-2" as="offset" />
          </mxGeometry>
        </mxCell>
        <mxCell id="TASuhm_qrvJY3Lz54P2R-375" style="edgeStyle=orthogonalEdgeStyle;rounded=0;orthogonalLoop=1;jettySize=auto;html=1;" parent="1" source="TASuhm_qrvJY3Lz54P2R-372" target="TASuhm_qrvJY3Lz54P2R-374" edge="1">
          <mxGeometry relative="1" as="geometry" />
        </mxCell>
        <mxCell id="TASuhm_qrvJY3Lz54P2R-372" value="Edit clicked" style="text;html=1;align=center;verticalAlign=middle;whiteSpace=wrap;rounded=0;" parent="1" vertex="1">
          <mxGeometry x="-360" y="2595" width="60" height="30" as="geometry" />
        </mxCell>
        <mxCell id="TASuhm_qrvJY3Lz54P2R-380" style="edgeStyle=orthogonalEdgeStyle;rounded=0;orthogonalLoop=1;jettySize=auto;html=1;" parent="1" source="TASuhm_qrvJY3Lz54P2R-374" target="TASuhm_qrvJY3Lz54P2R-377" edge="1">
          <mxGeometry relative="1" as="geometry" />
        </mxCell>
        <mxCell id="TASuhm_qrvJY3Lz54P2R-374" value="Get current step&lt;br&gt;&lt;span style=&quot;font-family: Times; font-size: medium; text-align: start; white-space: pre;&quot;&gt;/flow/{session_id}/{step_number}&lt;/span&gt;" style="text;html=1;align=center;verticalAlign=middle;whiteSpace=wrap;rounded=0;" parent="1" vertex="1">
          <mxGeometry x="-137.5" y="2595" width="60" height="30" as="geometry" />
        </mxCell>
        <mxCell id="TASuhm_qrvJY3Lz54P2R-376" style="edgeStyle=orthogonalEdgeStyle;rounded=0;orthogonalLoop=1;jettySize=auto;html=1;" parent="1" source="TASuhm_qrvJY3Lz54P2R-377" target="TASuhm_qrvJY3Lz54P2R-378" edge="1">
          <mxGeometry relative="1" as="geometry" />
        </mxCell>
        <mxCell id="TASuhm_qrvJY3Lz54P2R-385" style="edgeStyle=orthogonalEdgeStyle;rounded=0;orthogonalLoop=1;jettySize=auto;html=1;" parent="1" source="TASuhm_qrvJY3Lz54P2R-377" target="TASuhm_qrvJY3Lz54P2R-382" edge="1">
          <mxGeometry relative="1" as="geometry" />
        </mxCell>
        <mxCell id="TASuhm_qrvJY3Lz54P2R-377" value="User interactions" style="shape=umlActor;verticalLabelPosition=bottom;verticalAlign=top;html=1;outlineConnect=0;" parent="1" vertex="1">
          <mxGeometry x="-122.5" y="2700" width="30" height="60" as="geometry" />
        </mxCell>
        <mxCell id="TASuhm_qrvJY3Lz54P2R-378" value="Regenerate&lt;br&gt;&lt;span style=&quot;font-family: Times; font-size: medium; text-align: start; white-space: pre;&quot;&gt;/flow/{session_id}/{step_number}/regenerate&lt;/span&gt;" style="text;html=1;align=center;verticalAlign=middle;whiteSpace=wrap;rounded=0;" parent="1" vertex="1">
          <mxGeometry x="115" y="2715" width="60" height="30" as="geometry" />
        </mxCell>
        <mxCell id="TASuhm_qrvJY3Lz54P2R-379" style="edgeStyle=orthogonalEdgeStyle;rounded=0;orthogonalLoop=1;jettySize=auto;html=1;entryX=0.5;entryY=0;entryDx=0;entryDy=0;entryPerimeter=0;" parent="1" source="TASuhm_qrvJY3Lz54P2R-378" target="TASuhm_qrvJY3Lz54P2R-377" edge="1">
          <mxGeometry relative="1" as="geometry">
            <Array as="points">
              <mxPoint x="145.5" y="2680" />
              <mxPoint x="-107.5" y="2680" />
            </Array>
          </mxGeometry>
        </mxCell>
        <mxCell id="TASuhm_qrvJY3Lz54P2R-384" style="edgeStyle=orthogonalEdgeStyle;rounded=0;orthogonalLoop=1;jettySize=auto;html=1;" parent="1" source="TASuhm_qrvJY3Lz54P2R-381" edge="1">
          <mxGeometry relative="1" as="geometry">
            <mxPoint x="-443" y="2660" as="targetPoint" />
          </mxGeometry>
        </mxCell>
        <mxCell id="TASuhm_qrvJY3Lz54P2R-381" value="Set step data&lt;br&gt;&lt;span style=&quot;color: rgba(0, 0, 0, 0); font-family: monospace; font-size: 0px; text-align: start; text-wrap: nowrap;&quot;&gt;%3CmxGraphModel%3E%3Croot%3E%3CmxCell%20id%3D%220%22%2F%3E%3CmxCell%20id%3D%221%22%20parent%3D%220%22%2F%3E%3CmxCell%20id%3D%222%22%20value%3D%22Step%20Advance%26lt%3Bbr%26gt%3B%26lt%3Bspan%20style%3D%26quot%3Bfont-family%3A%20Times%3B%20font-size%3A%20medium%3B%20text-align%3A%20start%3B%20white-space%3A%20pre%3B%26quot%3B%26gt%3B%2Fflow%2Fsession%26lt%3B%2Fspan%26gt%3B%22%20style%3D%22text%3Bhtml%3D1%3Balign%3Dcenter%3BverticalAlign%3Dmiddle%3BwhiteSpace%3Dwrap%3Brounded%3D0%3B%22%20vertex%3D%221%22%20parent%3D%221%22%3E%3CmxGeometry%20x%3D%22-262.5%22%20y%3D%221160%22%20width%3D%2280%22%20height%3D%2240%22%20as%3D%22geometry%22%2F%3E%3C%2FmxCell%3E%3C%2Froot%3E%3C%2FmxGraphModel%3E&lt;/span&gt;&lt;span style=&quot;font-family: Times; font-size: medium; text-align: start; white-space: pre;&quot;&gt;/flow/{session_id}/{step_number}&lt;/span&gt;" style="text;html=1;align=center;verticalAlign=middle;whiteSpace=wrap;rounded=0;" parent="1" vertex="1">
          <mxGeometry x="-473" y="2715" width="60" height="30" as="geometry" />
        </mxCell>
        <mxCell id="TASuhm_qrvJY3Lz54P2R-386" style="edgeStyle=orthogonalEdgeStyle;rounded=0;orthogonalLoop=1;jettySize=auto;html=1;" parent="1" source="TASuhm_qrvJY3Lz54P2R-382" edge="1">
          <mxGeometry relative="1" as="geometry">
            <mxPoint x="-330" y="2730" as="targetPoint" />
          </mxGeometry>
        </mxCell>
        <mxCell id="TASuhm_qrvJY3Lz54P2R-382" value="Save cliked" style="text;html=1;align=center;verticalAlign=middle;whiteSpace=wrap;rounded=0;" parent="1" vertex="1">
          <mxGeometry x="-242.5" y="2715" width="60" height="30" as="geometry" />
        </mxCell>
        <mxCell id="TASuhm_qrvJY3Lz54P2R-423" value="" style="edgeStyle=orthogonalEdgeStyle;rounded=0;orthogonalLoop=1;jettySize=auto;html=1;" parent="1" source="TASuhm_qrvJY3Lz54P2R-387" target="TASuhm_qrvJY3Lz54P2R-389" edge="1">
          <mxGeometry relative="1" as="geometry" />
        </mxCell>
        <mxCell id="TASuhm_qrvJY3Lz54P2R-387" value="Shape idea" style="text;html=1;align=center;verticalAlign=middle;whiteSpace=wrap;rounded=0;" parent="1" vertex="1">
          <mxGeometry x="258" y="1950" width="60" height="30" as="geometry" />
        </mxCell>
        <mxCell id="TASuhm_qrvJY3Lz54P2R-425" value="" style="edgeStyle=orthogonalEdgeStyle;rounded=0;orthogonalLoop=1;jettySize=auto;html=1;" parent="1" source="TASuhm_qrvJY3Lz54P2R-389" target="TASuhm_qrvJY3Lz54P2R-397" edge="1">
          <mxGeometry relative="1" as="geometry" />
        </mxCell>
        <mxCell id="TASuhm_qrvJY3Lz54P2R-389" value="Set step data&lt;br&gt;&lt;span style=&quot;color: rgba(0, 0, 0, 0); font-family: monospace; font-size: 0px; text-align: start; text-wrap: nowrap;&quot;&gt;%3CmxGraphModel%3E%3Croot%3E%3CmxCell%20id%3D%220%22%2F%3E%3CmxCell%20id%3D%221%22%20parent%3D%220%22%2F%3E%3CmxCell%20id%3D%222%22%20value%3D%22Step%20Advance%26lt%3Bbr%26gt%3B%26lt%3Bspan%20style%3D%26quot%3Bfont-family%3A%20Times%3B%20font-size%3A%20medium%3B%20text-align%3A%20start%3B%20white-space%3A%20pre%3B%26quot%3B%26gt%3B%2Fflow%2Fsession%26lt%3B%2Fspan%26gt%3B%22%20style%3D%22text%3Bhtml%3D1%3Balign%3Dcenter%3BverticalAlign%3Dmiddle%3BwhiteSpace%3Dwrap%3Brounded%3D0%3B%22%20vertex%3D%221%22%20parent%3D%221%22%3E%3CmxGeometry%20x%3D%22-262.5%22%20y%3D%221160%22%20width%3D%2280%22%20height%3D%2240%22%20as%3D%22geometry%22%2F%3E%3C%2FmxCell%3E%3C%2Froot%3E%3C%2FmxGraphModel%3E&lt;/span&gt;&lt;span style=&quot;font-family: Times; font-size: medium; text-align: start; white-space: pre;&quot;&gt;/flow/{session_id}/{step_number}&lt;/span&gt;" style="text;html=1;align=center;verticalAlign=middle;whiteSpace=wrap;rounded=0;" parent="1" vertex="1">
          <mxGeometry x="258" y="2000" width="60" height="30" as="geometry" />
        </mxCell>
        <mxCell id="TASuhm_qrvJY3Lz54P2R-390" value="Step Advance&lt;br&gt;&lt;span style=&quot;font-family: Times; font-size: medium; text-align: start; white-space: pre;&quot;&gt;/flow/{session_id}/step/advance&lt;/span&gt;" style="text;html=1;align=center;verticalAlign=middle;whiteSpace=wrap;rounded=0;" parent="1" vertex="1">
          <mxGeometry x="350" y="2245" width="80" height="40" as="geometry" />
        </mxCell>
        <mxCell id="TASuhm_qrvJY3Lz54P2R-435" style="edgeStyle=orthogonalEdgeStyle;rounded=0;orthogonalLoop=1;jettySize=auto;html=1;entryX=0;entryY=0.5;entryDx=0;entryDy=0;" parent="1" source="TASuhm_qrvJY3Lz54P2R-391" target="TASuhm_qrvJY3Lz54P2R-434" edge="1">
          <mxGeometry relative="1" as="geometry" />
        </mxCell>
        <mxCell id="TASuhm_qrvJY3Lz54P2R-437" value="No" style="edgeLabel;html=1;align=center;verticalAlign=middle;resizable=0;points=[];" parent="TASuhm_qrvJY3Lz54P2R-435" vertex="1" connectable="0">
          <mxGeometry x="-0.6119" y="-1" relative="1" as="geometry">
            <mxPoint as="offset" />
          </mxGeometry>
        </mxCell>
        <mxCell id="TASuhm_qrvJY3Lz54P2R-391" value="Is success response?" style="text;html=1;align=center;verticalAlign=middle;whiteSpace=wrap;rounded=0;" parent="1" vertex="1">
          <mxGeometry x="350" y="2340" width="70" height="40" as="geometry" />
        </mxCell>
        <mxCell id="TASuhm_qrvJY3Lz54P2R-403" style="edgeStyle=orthogonalEdgeStyle;rounded=0;orthogonalLoop=1;jettySize=auto;html=1;" parent="1" source="TASuhm_qrvJY3Lz54P2R-392" edge="1">
          <mxGeometry relative="1" as="geometry">
            <mxPoint x="710" y="2340" as="targetPoint" />
          </mxGeometry>
        </mxCell>
        <mxCell id="TASuhm_qrvJY3Lz54P2R-392" value="Get current step&lt;br&gt;&lt;span style=&quot;font-family: Times; font-size: medium; text-align: start; white-space: pre;&quot;&gt;/flow/{session_id}/{step_number}&lt;/span&gt;" style="text;html=1;align=center;verticalAlign=middle;whiteSpace=wrap;rounded=0;" parent="1" vertex="1">
          <mxGeometry x="350" y="2450" width="60" height="30" as="geometry" />
        </mxCell>
        <mxCell id="TASuhm_qrvJY3Lz54P2R-393" style="edgeStyle=orthogonalEdgeStyle;rounded=0;orthogonalLoop=1;jettySize=auto;html=1;" parent="1" source="TASuhm_qrvJY3Lz54P2R-394" target="TASuhm_qrvJY3Lz54P2R-395" edge="1">
          <mxGeometry relative="1" as="geometry" />
        </mxCell>
        <mxCell id="TASuhm_qrvJY3Lz54P2R-394" value="User interactions" style="shape=umlActor;verticalLabelPosition=bottom;verticalAlign=top;html=1;outlineConnect=0;" parent="1" vertex="1">
          <mxGeometry x="694.5" y="2260" width="30" height="60" as="geometry" />
        </mxCell>
        <mxCell id="TASuhm_qrvJY3Lz54P2R-395" value="Regenerate&lt;br&gt;&lt;span style=&quot;font-family: Times; font-size: medium; text-align: start; white-space: pre;&quot;&gt;/flow/{session_id}/{step_number}/regenerate&lt;/span&gt;" style="text;html=1;align=center;verticalAlign=middle;whiteSpace=wrap;rounded=0;" parent="1" vertex="1">
          <mxGeometry x="932" y="2275" width="60" height="30" as="geometry" />
        </mxCell>
        <mxCell id="TASuhm_qrvJY3Lz54P2R-396" style="edgeStyle=orthogonalEdgeStyle;rounded=0;orthogonalLoop=1;jettySize=auto;html=1;entryX=0.5;entryY=0;entryDx=0;entryDy=0;entryPerimeter=0;" parent="1" source="TASuhm_qrvJY3Lz54P2R-395" target="TASuhm_qrvJY3Lz54P2R-394" edge="1">
          <mxGeometry relative="1" as="geometry">
            <Array as="points">
              <mxPoint x="962" y="2260" />
            </Array>
          </mxGeometry>
        </mxCell>
        <mxCell id="TASuhm_qrvJY3Lz54P2R-426" style="edgeStyle=orthogonalEdgeStyle;rounded=0;orthogonalLoop=1;jettySize=auto;html=1;entryX=0.5;entryY=0;entryDx=0;entryDy=0;" parent="1" source="TASuhm_qrvJY3Lz54P2R-397" target="TASuhm_qrvJY3Lz54P2R-390" edge="1">
          <mxGeometry relative="1" as="geometry" />
        </mxCell>
        <mxCell id="TASuhm_qrvJY3Lz54P2R-397" value="Navigate to IdeationQuestionary&lt;div&gt;Page&lt;/div&gt;" style="text;html=1;align=center;verticalAlign=middle;whiteSpace=wrap;rounded=0;" parent="1" vertex="1">
          <mxGeometry x="258" y="2080" width="60" height="30" as="geometry" />
        </mxCell>
        <mxCell id="TASuhm_qrvJY3Lz54P2R-401" style="edgeStyle=orthogonalEdgeStyle;rounded=0;orthogonalLoop=1;jettySize=auto;html=1;entryX=0.579;entryY=-0.071;entryDx=0;entryDy=0;entryPerimeter=0;" parent="1" source="TASuhm_qrvJY3Lz54P2R-390" target="TASuhm_qrvJY3Lz54P2R-391" edge="1">
          <mxGeometry relative="1" as="geometry" />
        </mxCell>
        <mxCell id="TASuhm_qrvJY3Lz54P2R-402" style="edgeStyle=orthogonalEdgeStyle;rounded=0;orthogonalLoop=1;jettySize=auto;html=1;entryX=0.592;entryY=-0.067;entryDx=0;entryDy=0;entryPerimeter=0;" parent="1" source="TASuhm_qrvJY3Lz54P2R-391" target="TASuhm_qrvJY3Lz54P2R-392" edge="1">
          <mxGeometry relative="1" as="geometry" />
        </mxCell>
        <mxCell id="TASuhm_qrvJY3Lz54P2R-438" value="Yes" style="edgeLabel;html=1;align=center;verticalAlign=middle;resizable=0;points=[];" parent="TASuhm_qrvJY3Lz54P2R-402" vertex="1" connectable="0">
          <mxGeometry x="-0.3527" y="1" relative="1" as="geometry">
            <mxPoint as="offset" />
          </mxGeometry>
        </mxCell>
        <mxCell id="TASuhm_qrvJY3Lz54P2R-431" style="edgeStyle=orthogonalEdgeStyle;rounded=0;orthogonalLoop=1;jettySize=auto;html=1;entryX=0.5;entryY=0;entryDx=0;entryDy=0;" parent="1" source="TASuhm_qrvJY3Lz54P2R-404" target="TASuhm_qrvJY3Lz54P2R-390" edge="1">
          <mxGeometry relative="1" as="geometry" />
        </mxCell>
        <mxCell id="TASuhm_qrvJY3Lz54P2R-432" value="No" style="edgeLabel;html=1;align=center;verticalAlign=middle;resizable=0;points=[];" parent="TASuhm_qrvJY3Lz54P2R-431" vertex="1" connectable="0">
          <mxGeometry x="-0.6936" y="-2" relative="1" as="geometry">
            <mxPoint as="offset" />
          </mxGeometry>
        </mxCell>
        <mxCell id="TASuhm_qrvJY3Lz54P2R-468" style="edgeStyle=orthogonalEdgeStyle;rounded=0;orthogonalLoop=1;jettySize=auto;html=1;" parent="1" source="TASuhm_qrvJY3Lz54P2R-404" edge="1">
          <mxGeometry relative="1" as="geometry">
            <mxPoint x="1280" y="2075" as="targetPoint" />
          </mxGeometry>
        </mxCell>
        <mxCell id="TASuhm_qrvJY3Lz54P2R-469" value="Yes" style="edgeLabel;html=1;align=center;verticalAlign=middle;resizable=0;points=[];" parent="TASuhm_qrvJY3Lz54P2R-468" vertex="1" connectable="0">
          <mxGeometry x="-0.7948" y="-1" relative="1" as="geometry">
            <mxPoint as="offset" />
          </mxGeometry>
        </mxCell>
        <mxCell id="TASuhm_qrvJY3Lz54P2R-404" value="Is finished?" style="text;html=1;align=center;verticalAlign=middle;whiteSpace=wrap;rounded=0;" parent="1" vertex="1">
          <mxGeometry x="690" y="2060" width="60" height="30" as="geometry" />
        </mxCell>
        <mxCell id="TASuhm_qrvJY3Lz54P2R-405" value="Complete session&lt;br&gt;&lt;span style=&quot;font-family: Times; font-size: medium; text-align: start; white-space: pre;&quot;&gt;/flow/{session_id}/complete&lt;/span&gt;" style="text;html=1;align=center;verticalAlign=middle;whiteSpace=wrap;rounded=0;" parent="1" vertex="1">
          <mxGeometry x="-122.5" y="2390" width="60" height="30" as="geometry" />
        </mxCell>
        <mxCell id="TASuhm_qrvJY3Lz54P2R-409" value="Complete session&lt;br&gt;&lt;span style=&quot;font-family: Times; font-size: medium; text-align: start; white-space: pre;&quot;&gt;/flow/{session_id}/complete&lt;/span&gt;" style="text;html=1;align=center;verticalAlign=middle;whiteSpace=wrap;rounded=0;" parent="1" vertex="1">
          <mxGeometry x="1400" y="1460" width="60" height="30" as="geometry" />
        </mxCell>
        <mxCell id="TASuhm_qrvJY3Lz54P2R-422" style="edgeStyle=orthogonalEdgeStyle;rounded=0;orthogonalLoop=1;jettySize=auto;html=1;" parent="1" source="TASuhm_qrvJY3Lz54P2R-420" target="TASuhm_qrvJY3Lz54P2R-237" edge="1">
          <mxGeometry relative="1" as="geometry" />
        </mxCell>
        <mxCell id="TASuhm_qrvJY3Lz54P2R-420" value="Complete session&lt;br&gt;&lt;span style=&quot;font-family: Times; font-size: medium; text-align: start; white-space: pre;&quot;&gt;/flow/{session_id}/complete&lt;/span&gt;" style="text;html=1;align=center;verticalAlign=middle;whiteSpace=wrap;rounded=0;" parent="1" vertex="1">
          <mxGeometry x="-720" y="2605" width="60" height="30" as="geometry" />
        </mxCell>
        <mxCell id="TASuhm_qrvJY3Lz54P2R-430" value="" style="edgeStyle=orthogonalEdgeStyle;rounded=0;orthogonalLoop=1;jettySize=auto;html=1;" parent="1" source="TASuhm_qrvJY3Lz54P2R-427" target="TASuhm_qrvJY3Lz54P2R-404" edge="1">
          <mxGeometry relative="1" as="geometry" />
        </mxCell>
        <mxCell id="TASuhm_qrvJY3Lz54P2R-427" value="Set step data&lt;br&gt;&lt;span style=&quot;color: rgba(0, 0, 0, 0); font-family: monospace; font-size: 0px; text-align: start; text-wrap: nowrap;&quot;&gt;%3CmxGraphModel%3E%3Croot%3E%3CmxCell%20id%3D%220%22%2F%3E%3CmxCell%20id%3D%221%22%20parent%3D%220%22%2F%3E%3CmxCell%20id%3D%222%22%20value%3D%22Step%20Advance%26lt%3Bbr%26gt%3B%26lt%3Bspan%20style%3D%26quot%3Bfont-family%3A%20Times%3B%20font-size%3A%20medium%3B%20text-align%3A%20start%3B%20white-space%3A%20pre%3B%26quot%3B%26gt%3B%2Fflow%2Fsession%26lt%3B%2Fspan%26gt%3B%22%20style%3D%22text%3Bhtml%3D1%3Balign%3Dcenter%3BverticalAlign%3Dmiddle%3BwhiteSpace%3Dwrap%3Brounded%3D0%3B%22%20vertex%3D%221%22%20parent%3D%221%22%3E%3CmxGeometry%20x%3D%22-262.5%22%20y%3D%221160%22%20width%3D%2280%22%20height%3D%2240%22%20as%3D%22geometry%22%2F%3E%3C%2FmxCell%3E%3C%2Froot%3E%3C%2FmxGraphModel%3E&lt;/span&gt;&lt;span style=&quot;font-family: Times; font-size: medium; text-align: start; white-space: pre;&quot;&gt;/flow/{session_id}/{step_number}&lt;/span&gt;" style="text;html=1;align=center;verticalAlign=middle;whiteSpace=wrap;rounded=0;" parent="1" vertex="1">
          <mxGeometry x="690" y="2140" width="60" height="30" as="geometry" />
        </mxCell>
        <mxCell id="TASuhm_qrvJY3Lz54P2R-428" style="edgeStyle=orthogonalEdgeStyle;rounded=0;orthogonalLoop=1;jettySize=auto;html=1;entryX=0.342;entryY=1.183;entryDx=0;entryDy=0;entryPerimeter=0;" parent="1" source="TASuhm_qrvJY3Lz54P2R-394" target="TASuhm_qrvJY3Lz54P2R-427" edge="1">
          <mxGeometry relative="1" as="geometry" />
        </mxCell>
        <mxCell id="TASuhm_qrvJY3Lz54P2R-436" style="edgeStyle=orthogonalEdgeStyle;rounded=0;orthogonalLoop=1;jettySize=auto;html=1;" parent="1" source="TASuhm_qrvJY3Lz54P2R-434" target="TASuhm_qrvJY3Lz54P2R-394" edge="1">
          <mxGeometry relative="1" as="geometry" />
        </mxCell>
        <mxCell id="TASuhm_qrvJY3Lz54P2R-434" value="Back to previous screen" style="text;html=1;align=center;verticalAlign=middle;whiteSpace=wrap;rounded=0;" parent="1" vertex="1">
          <mxGeometry x="520" y="2305" width="60" height="30" as="geometry" />
        </mxCell>
        <mxCell id="TASuhm_qrvJY3Lz54P2R-447" style="edgeStyle=orthogonalEdgeStyle;rounded=0;orthogonalLoop=1;jettySize=auto;html=1;" parent="1" source="TASuhm_qrvJY3Lz54P2R-439" target="TASuhm_qrvJY3Lz54P2R-441" edge="1">
          <mxGeometry relative="1" as="geometry" />
        </mxCell>
        <mxCell id="TASuhm_qrvJY3Lz54P2R-439" value="Navigate to IdeationLoading&lt;div&gt;Page&lt;/div&gt;" style="text;html=1;align=center;verticalAlign=middle;whiteSpace=wrap;rounded=0;" parent="1" vertex="1">
          <mxGeometry x="1300" y="2060" width="60" height="30" as="geometry" />
        </mxCell>
        <mxCell id="TASuhm_qrvJY3Lz54P2R-448" style="edgeStyle=orthogonalEdgeStyle;rounded=0;orthogonalLoop=1;jettySize=auto;html=1;entryX=0.467;entryY=1.183;entryDx=0;entryDy=0;entryPerimeter=0;" parent="1" source="TASuhm_qrvJY3Lz54P2R-441" target="TASuhm_qrvJY3Lz54P2R-444" edge="1">
          <mxGeometry relative="1" as="geometry">
            <mxPoint x="1330" y="1930" as="targetPoint" />
          </mxGeometry>
        </mxCell>
        <mxCell id="TASuhm_qrvJY3Lz54P2R-441" value="Generate idea content&lt;br&gt;&lt;span style=&quot;font-family: Times; font-size: medium; text-align: start; white-space: pre;&quot;&gt;/flow/{session_id}/generate-content&lt;/span&gt;&lt;br&gt;&lt;div&gt;&lt;br&gt;&lt;/div&gt;" style="text;html=1;align=center;verticalAlign=middle;whiteSpace=wrap;rounded=0;" parent="1" vertex="1">
          <mxGeometry x="1300" y="1980" width="60" height="30" as="geometry" />
        </mxCell>
        <mxCell id="TASuhm_qrvJY3Lz54P2R-455" style="edgeStyle=orthogonalEdgeStyle;rounded=0;orthogonalLoop=1;jettySize=auto;html=1;" parent="1" source="TASuhm_qrvJY3Lz54P2R-444" edge="1">
          <mxGeometry relative="1" as="geometry">
            <mxPoint x="1330" y="1800" as="targetPoint" />
          </mxGeometry>
        </mxCell>
        <mxCell id="TASuhm_qrvJY3Lz54P2R-444" value="Navigate to IdeaBlueprint&lt;div&gt;Page&lt;/div&gt;" style="text;html=1;align=center;verticalAlign=middle;whiteSpace=wrap;rounded=0;" parent="1" vertex="1">
          <mxGeometry x="1300" y="1880" width="60" height="30" as="geometry" />
        </mxCell>
        <mxCell id="TASuhm_qrvJY3Lz54P2R-451" style="edgeStyle=orthogonalEdgeStyle;rounded=0;orthogonalLoop=1;jettySize=auto;html=1;" parent="1" source="TASuhm_qrvJY3Lz54P2R-449" edge="1">
          <mxGeometry relative="1" as="geometry">
            <mxPoint x="1290" y="1895" as="targetPoint" />
          </mxGeometry>
        </mxCell>
        <mxCell id="TASuhm_qrvJY3Lz54P2R-449" value="Idea selected" style="text;html=1;align=center;verticalAlign=middle;whiteSpace=wrap;rounded=0;" parent="1" vertex="1">
          <mxGeometry x="690" y="1895" width="60" height="30" as="geometry" />
        </mxCell>
        <mxCell id="TASuhm_qrvJY3Lz54P2R-456" style="edgeStyle=orthogonalEdgeStyle;rounded=0;orthogonalLoop=1;jettySize=auto;html=1;entryX=0.5;entryY=1;entryDx=0;entryDy=0;" parent="1" source="TASuhm_qrvJY3Lz54P2R-452" target="TASuhm_qrvJY3Lz54P2R-454" edge="1">
          <mxGeometry relative="1" as="geometry" />
        </mxCell>
        <mxCell id="TASuhm_qrvJY3Lz54P2R-459" style="edgeStyle=orthogonalEdgeStyle;rounded=0;orthogonalLoop=1;jettySize=auto;html=1;entryX=0.5;entryY=1;entryDx=0;entryDy=0;" parent="1" source="TASuhm_qrvJY3Lz54P2R-452" target="TASuhm_qrvJY3Lz54P2R-453" edge="1">
          <mxGeometry relative="1" as="geometry" />
        </mxCell>
        <mxCell id="TASuhm_qrvJY3Lz54P2R-452" value="User interactions" style="shape=umlActor;verticalLabelPosition=bottom;verticalAlign=top;html=1;outlineConnect=0;" parent="1" vertex="1">
          <mxGeometry x="1315" y="1710" width="30" height="60" as="geometry" />
        </mxCell>
        <mxCell id="TASuhm_qrvJY3Lz54P2R-463" style="edgeStyle=orthogonalEdgeStyle;rounded=0;orthogonalLoop=1;jettySize=auto;html=1;" parent="1" source="TASuhm_qrvJY3Lz54P2R-453" edge="1">
          <mxGeometry relative="1" as="geometry">
            <mxPoint x="1200.0000000000005" y="1640" as="targetPoint" />
          </mxGeometry>
        </mxCell>
        <mxCell id="TASuhm_qrvJY3Lz54P2R-453" value="Close clicked" style="text;html=1;align=center;verticalAlign=middle;whiteSpace=wrap;rounded=0;" parent="1" vertex="1">
          <mxGeometry x="1170" y="1670" width="60" height="30" as="geometry" />
        </mxCell>
        <mxCell id="TASuhm_qrvJY3Lz54P2R-458" style="edgeStyle=orthogonalEdgeStyle;rounded=0;orthogonalLoop=1;jettySize=auto;html=1;entryX=0.5;entryY=1;entryDx=0;entryDy=0;" parent="1" source="TASuhm_qrvJY3Lz54P2R-454" target="TASuhm_qrvJY3Lz54P2R-457" edge="1">
          <mxGeometry relative="1" as="geometry" />
        </mxCell>
        <mxCell id="TASuhm_qrvJY3Lz54P2R-454" value="Like/Dislike" style="text;html=1;align=center;verticalAlign=middle;whiteSpace=wrap;rounded=0;" parent="1" vertex="1">
          <mxGeometry x="1400" y="1630" width="60" height="30" as="geometry" />
        </mxCell>
        <mxCell id="TASuhm_qrvJY3Lz54P2R-467" style="edgeStyle=orthogonalEdgeStyle;rounded=0;orthogonalLoop=1;jettySize=auto;html=1;" parent="1" edge="1">
          <mxGeometry relative="1" as="geometry">
            <mxPoint x="1430" y="1450" as="sourcePoint" />
            <mxPoint x="335" y="600" as="targetPoint" />
            <Array as="points">
              <mxPoint x="1430" y="1380" />
              <mxPoint x="1200" y="1380" />
              <mxPoint x="1200" y="590" />
              <mxPoint x="335" y="590" />
            </Array>
          </mxGeometry>
        </mxCell>
        <mxCell id="TASuhm_qrvJY3Lz54P2R-470" value="" style="edgeStyle=orthogonalEdgeStyle;rounded=0;orthogonalLoop=1;jettySize=auto;html=1;" parent="1" source="TASuhm_qrvJY3Lz54P2R-457" target="TASuhm_qrvJY3Lz54P2R-409" edge="1">
          <mxGeometry relative="1" as="geometry" />
        </mxCell>
        <mxCell id="TASuhm_qrvJY3Lz54P2R-457" value="Idea feedback&lt;br&gt;&lt;span style=&quot;font-family: Times; font-size: medium; text-align: start; white-space: pre;&quot;&gt;/flow/{session_id}/{step_number}/feedback&lt;/span&gt;" style="text;html=1;align=center;verticalAlign=middle;whiteSpace=wrap;rounded=0;" parent="1" vertex="1">
          <mxGeometry x="1400" y="1550" width="60" height="30" as="geometry" />
        </mxCell>
        <mxCell id="TASuhm_qrvJY3Lz54P2R-464" style="edgeStyle=orthogonalEdgeStyle;rounded=0;orthogonalLoop=1;jettySize=auto;html=1;" parent="1" source="TASuhm_qrvJY3Lz54P2R-460" edge="1">
          <mxGeometry relative="1" as="geometry">
            <mxPoint x="335" y="600" as="targetPoint" />
            <Array as="points">
              <mxPoint x="1200" y="590" />
              <mxPoint x="335" y="590" />
            </Array>
          </mxGeometry>
        </mxCell>
        <mxCell id="TASuhm_qrvJY3Lz54P2R-465" value="Yes" style="edgeLabel;html=1;align=center;verticalAlign=middle;resizable=0;points=[];" parent="TASuhm_qrvJY3Lz54P2R-464" vertex="1" connectable="0">
          <mxGeometry x="-0.9636" y="-1" relative="1" as="geometry">
            <mxPoint x="-1" y="-16" as="offset" />
          </mxGeometry>
        </mxCell>
        <mxCell id="TASuhm_qrvJY3Lz54P2R-460" value="Has feedback? (like/dislike)" style="text;html=1;align=center;verticalAlign=middle;whiteSpace=wrap;rounded=0;" parent="1" vertex="1">
          <mxGeometry x="1170" y="1600" width="60" height="30" as="geometry" />
        </mxCell>
        <mxCell id="TASuhm_qrvJY3Lz54P2R-461" style="edgeStyle=orthogonalEdgeStyle;rounded=0;orthogonalLoop=1;jettySize=auto;html=1;entryX=0.5;entryY=0;entryDx=0;entryDy=0;entryPerimeter=0;" parent="1" source="TASuhm_qrvJY3Lz54P2R-460" target="TASuhm_qrvJY3Lz54P2R-452" edge="1">
          <mxGeometry relative="1" as="geometry" />
        </mxCell>
        <mxCell id="TASuhm_qrvJY3Lz54P2R-462" value="No" style="edgeLabel;html=1;align=center;verticalAlign=middle;resizable=0;points=[];" parent="TASuhm_qrvJY3Lz54P2R-461" vertex="1" connectable="0">
          <mxGeometry x="-0.3538" y="-1" relative="1" as="geometry">
            <mxPoint as="offset" />
          </mxGeometry>
        </mxCell>
      </root>
    </mxGraphModel>
  </diagram>
</mxfile>
